<!-- <svg width="486" height="486" viewBox="0 0 486 486" fill="none" xmlns="http://www.w3.org/2000/svg">
<path fill-rule="evenodd" clip-rule="evenodd" d="M8.25528 261.438C8.25528 261.438 -3.02476 117.441 83.8477 94.9492C170.72 72.462 200.697 117.023 243.246 113.641C285.8 110.258 348.416 51.5883 396.37 64.5645C444.319 77.5358 482.679 108.562 478.164 241.697C473.654 374.827 392.202 432.054 251.505 431.568C110.808 431.082 17.0567 380.673 8.25528 261.438Z" fill="#F4F6FF"/>
<path d="M8.26172 259.038H477.009L476.28 264.384H8.50472L8.26172 259.038Z" fill="#E5EAFF"/>
<path d="M10.6919 203.148H478.71V208.008H9.96289L10.6919 203.148Z" fill="#E5EAFF"/>
<path d="M25.3064 148.716H471.646L472.878 154.062H22.8418L25.3064 148.716Z" fill="#E5EAFF"/>
<path d="M61.7218 104.49H168.156V109.836H53.9458L61.7218 104.49Z" fill="#E5EAFF"/>
<path d="M314.442 104.49H454.896L458.055 109.836H314.442V104.49Z" fill="#E5EAFF"/>
<path d="M24.7856 313.956H466.074L464.13 319.302H24.7856V313.956Z" fill="#E5EAFF"/>
<rect x="369.846" y="301.806" width="32.076" height="55.404" fill="#B9C7FF"/>
<rect x="399.492" y="301.806" width="5.83196" height="55.404" fill="#DBE2FF"/>
<rect x="355.752" y="296.946" width="45.198" height="4.86" fill="#C0CDFF"/>
<path d="M400.95 296.946L470.934 296.946L469.719 301.806H400.95V296.946Z" fill="#CED7FC"/>
<path d="M399.492 301.806L469.719 301.806L467.046 310.554H399.492V301.806Z" fill="#DBE2FF"/>
<rect x="381.996" y="262.44" width="62.694" height="34.506" rx="10.1334" fill="#B9C7FF"/>
<path fill-rule="evenodd" clip-rule="evenodd" d="M391.305 237.602C391.871 237.241 392.622 237.407 392.983 237.972L407.987 261.486L414.158 245.953C414.405 245.33 415.112 245.025 415.735 245.273C416.359 245.521 416.664 246.227 416.416 246.851L408.493 266.796L390.935 239.28C390.574 238.714 390.74 237.963 391.305 237.602Z" fill="#B9C7FF"/>
<rect x="394.632" y="262.44" width="52.488" height="34.506" rx="10.1334" fill="#DBE2FF"/>
<rect x="426.222" y="279.45" width="16.038" height="1.458" fill="#B9C7FF"/>
<rect x="426.222" y="282.852" width="16.038" height="1.45798" fill="#B9C7FF"/>
<rect x="426.222" y="286.254" width="16.038" height="1.458" fill="#B9C7FF"/>
<circle cx="410.913" cy="283.095" r="9.47699" fill="white"/>
<circle cx="410.913" cy="283.095" r="7.04699" fill="#DBE2FF"/>
<rect x="400.464" y="266.328" width="43.254" height="4.86" fill="#B9C7FF"/>
<rect x="401.922" y="266.328" width="40.338" height="4.86" fill="white"/>
<path fill-rule="evenodd" clip-rule="evenodd" d="M235.82 352.413H101.574V403.137C101.574 403.137 158.193 433.026 246.645 431.325C356.238 433.998 406.296 394.389 406.296 394.389L323.893 355.762L235.82 352.413Z" fill="#C2CEFF"/>
<path d="M172.773 412.857C157.538 414.941 137.619 412.614 133.893 411.399L132.435 396.333H156.249L242.514 394.632L355.509 398.763L382.725 407.754L374.463 411.399L359.64 416.502C350.487 414.801 332.764 412.857 321.489 412.857C307.395 412.857 299.619 416.016 283.581 417.96C267.543 419.904 248.346 418.932 230.121 416.502C211.896 414.072 195.858 409.698 172.773 412.857Z" fill="#B6C4FF"/>
<path fill-rule="evenodd" clip-rule="evenodd" d="M164.849 92.6019V284.849H334.837V75.1497C333.025 75.9661 329.516 77.1567 325.453 79.3097C305.259 89.9969 262.37 113.962 243.154 113.962C211.928 113.962 181.315 94.575 164.849 92.6019Z" fill="#C2CEFF"/>
<path fill-rule="evenodd" clip-rule="evenodd" d="M333.882 291.919C333.882 291.191 333.505 290.491 332.842 289.977C332.178 289.459 331.276 289.17 330.336 289.17C308.099 289.17 188.102 289.17 165.869 289.17C164.93 289.17 164.027 289.459 163.364 289.977C162.697 290.491 162.324 291.191 162.324 291.919C162.324 293.24 162.324 294.818 162.324 296.139C162.324 296.87 162.697 297.57 163.364 298.084C164.027 298.599 164.93 298.89 165.869 298.89C188.102 298.89 308.099 298.89 330.336 298.89C331.276 298.89 332.178 298.599 332.842 298.084C333.505 297.57 333.882 296.87 333.882 296.139C333.882 294.818 333.882 293.24 333.882 291.919Z" fill="#BFCBFE"/>
<path fill-rule="evenodd" clip-rule="evenodd" d="M342.63 286.013C342.63 285.176 342.222 284.372 341.504 283.779C340.786 283.184 339.81 282.852 338.793 282.852C314.729 282.852 184.874 282.852 160.814 282.852C159.798 282.852 158.821 283.184 158.103 283.779C157.381 284.372 156.978 285.176 156.978 286.013C156.978 287.532 156.978 289.348 156.978 290.867C156.978 291.707 157.381 292.511 158.103 293.103C158.821 293.696 159.798 294.03 160.814 294.03C184.874 294.03 314.729 294.03 338.793 294.03C339.81 294.03 340.786 293.696 341.504 293.103C342.222 292.511 342.63 291.707 342.63 290.867C342.63 289.348 342.63 287.532 342.63 286.013Z" fill="#ACBCFF"/>
<path fill-rule="evenodd" clip-rule="evenodd" d="M174.234 94.9036V276.308H325.455V79.3092C315.831 83.9759 264.425 113.305 243.893 113.305C216.115 113.305 194.887 100.032 174.234 94.9036Z" fill="#E8EDFF"/>
<path fill-rule="evenodd" clip-rule="evenodd" d="M173.988 94.8377V276.534H325.62V79.2181C315.97 83.8923 264.424 113.268 243.836 113.268C215.983 113.268 194.697 99.9742 173.988 94.8377Z" fill="#FDFDFF"/>
<path fill-rule="evenodd" clip-rule="evenodd" d="M221.371 138.237C221.522 138.37 221.536 138.6 221.403 138.751L199.533 163.537C199.4 163.688 199.17 163.703 199.019 163.569C198.868 163.436 198.853 163.206 198.986 163.055L220.856 138.269C220.99 138.118 221.22 138.104 221.371 138.237Z" fill="#E6EBFF"/>
<path fill-rule="evenodd" clip-rule="evenodd" d="M201.924 122.679C202.078 122.809 202.098 123.039 201.968 123.193L186.416 141.661C186.287 141.815 186.057 141.835 185.903 141.705C185.749 141.575 185.729 141.345 185.859 141.191L201.411 122.723C201.54 122.569 201.77 122.55 201.924 122.679Z" fill="#E6EBFF"/>
<path fill-rule="evenodd" clip-rule="evenodd" d="M296.701 109.563C296.852 109.696 296.866 109.926 296.733 110.077L274.863 134.863C274.73 135.014 274.5 135.029 274.349 134.895C274.198 134.762 274.183 134.532 274.317 134.381L296.187 109.595C296.32 109.444 296.55 109.429 296.701 109.563Z" fill="#E6EBFF"/>
<path fill-rule="evenodd" clip-rule="evenodd" d="M252.475 159.135C252.626 159.268 252.64 159.499 252.507 159.65L218.973 197.558C218.839 197.708 218.609 197.722 218.458 197.589C218.307 197.456 218.293 197.225 218.427 197.075L251.961 159.167C252.094 159.016 252.324 159.002 252.475 159.135Z" fill="#E6EBFF"/>
<path fill-rule="evenodd" clip-rule="evenodd" d="M306.891 146.486C307.049 146.61 307.076 146.839 306.952 146.997L272.932 190.251C272.808 190.41 272.578 190.437 272.42 190.313C272.262 190.188 272.235 189.959 272.359 189.801L306.379 146.547C306.503 146.389 306.733 146.361 306.891 146.486Z" fill="#E6EBFF"/>
<path fill-rule="evenodd" clip-rule="evenodd" d="M262.181 210.639C262.338 210.765 262.364 210.994 262.239 211.151L227.733 254.405C227.607 254.563 227.378 254.589 227.22 254.463C227.063 254.337 227.037 254.108 227.163 253.951L261.669 210.697C261.794 210.539 262.024 210.514 262.181 210.639Z" fill="#E6EBFF"/>
<path fill-rule="evenodd" clip-rule="evenodd" d="M209.707 206.763C209.858 206.896 209.872 207.126 209.739 207.277L195.159 223.801C195.026 223.952 194.795 223.967 194.644 223.833C194.493 223.7 194.479 223.47 194.612 223.319L209.192 206.795C209.325 206.644 209.556 206.63 209.707 206.763Z" fill="#E6EBFF"/>
<path fill-rule="evenodd" clip-rule="evenodd" d="M287.955 245.159C288.105 245.293 288.117 245.524 287.983 245.674L270.973 264.628C270.838 264.777 270.608 264.79 270.458 264.655C270.308 264.521 270.296 264.29 270.43 264.141L287.44 245.187C287.575 245.037 287.805 245.024 287.955 245.159Z" fill="#E6EBFF"/>
<path fill-rule="evenodd" clip-rule="evenodd" d="M302.535 202.391C302.685 202.525 302.697 202.756 302.563 202.906L285.553 221.86C285.419 222.009 285.188 222.022 285.038 221.887C284.888 221.753 284.876 221.522 285.01 221.373L302.02 202.419C302.155 202.269 302.385 202.256 302.535 202.391Z" fill="#E6EBFF"/>
<path d="M314.442 84.8071L325.62 79.2181V276.534H314.442V84.8071Z" fill="#D6DFFF"/>
<path fill-rule="evenodd" clip-rule="evenodd" d="M249.254 112.756L245.613 113.194V280.422H249.254V112.756Z" fill="#C2CEFF"/>
<path d="M314.41 179.999H170.586V182.412H314.41V179.999Z" fill="#C2CEFF"/>
<path fill-rule="evenodd" clip-rule="evenodd" d="M198.43 250.533H59.0834C55.8044 250.533 53.1514 253.188 53.1514 256.463C53.1514 278.298 53.1514 352.945 53.1514 352.945H198.43V250.533Z" fill="#A9BAFF"/>
<path fill-rule="evenodd" clip-rule="evenodd" d="M205.948 256.864C205.948 255.186 205.28 253.575 204.093 252.39C202.907 251.2 201.296 250.533 199.614 250.533C175.684 250.533 90.9333 250.533 67.0036 250.533C65.322 250.533 63.7104 251.2 62.5239 252.39C61.3375 253.575 60.6697 255.186 60.6697 256.864C60.6697 279.203 60.6697 352.945 60.6697 352.945H205.948V256.864Z" fill="#C2CEFF"/>
<path fill-rule="evenodd" clip-rule="evenodd" d="M198.43 266.845C198.43 264.823 197.63 262.885 196.202 261.456C194.77 260.028 192.836 259.225 190.813 259.225C167.752 259.225 98.8666 259.225 75.8056 259.225C73.7872 259.225 71.8484 260.028 70.4205 261.456C68.9925 262.885 68.1885 264.823 68.1885 266.845C68.1885 288.297 68.1885 347.674 68.1885 347.674H198.43V266.845Z" fill="#C2CEFF" stroke="white" stroke-width="2.63809" stroke-miterlimit="1.5" stroke-linecap="round" stroke-linejoin="round"/>
<path d="M54.9185 269.243C61.9169 273.909 63.3425 285.119 63.1805 290.141C59.8595 288.764 52.0025 284.65 47.1425 279.206C42.2825 273.763 40.2575 266.084 39.8525 262.925C41.9585 263.087 47.9201 264.578 54.9185 269.243Z" fill="#889EF8"/>
<path d="M65.698 273.618C59.869 278.283 58.6816 289.494 58.8165 294.516C61.5826 293.139 68.1267 289.024 72.1747 283.581C76.2226 278.137 77.9093 270.459 78.2466 267.3C76.4925 267.462 71.527 268.952 65.698 273.618Z" fill="#889EF8"/>
<path d="M43.458 301.785L43.895 303.667C45.2274 309.407 50.3415 313.469 56.2336 313.469H67.0681C72.8016 313.469 77.8201 309.618 79.3036 304.08L79.8078 302.198C81.9626 294.153 75.9007 286.253 67.5724 286.253H55.7966C47.644 286.253 41.6144 293.843 43.458 301.785Z" fill="#9CAFFF"/>
<path fill-rule="evenodd" clip-rule="evenodd" d="M205.95 342.061C202.101 338.144 195.336 318.884 174.234 319.209C153.132 319.535 102.534 319.209 102.534 319.209L128.322 357.516L205.95 342.061Z" fill="#9CAFFF"/>
<path fill-rule="evenodd" clip-rule="evenodd" d="M450.765 346.761C450.765 346.761 430.885 329.955 382.465 329.955H206.183C206.183 329.955 138.488 331.456 117.804 349.04C97.1199 366.623 98.2737 401.534 132.921 404.352C167.568 407.171 178.935 400.771 195.858 402.651C212.78 404.532 238.534 408.041 257.337 409.455C276.141 410.865 300.324 401.801 320.517 402.651C336.813 403.341 354.945 411.477 374.463 411.156C406.539 398.52 432.54 375.921 450.765 346.761Z" fill="#CDD7FF"/>
<path d="M240.57 329.751C187.839 333.882 100.846 365.229 123.687 371.547C146.528 377.865 305.451 381.753 331.209 377.865C339.637 376.593 348.219 369.329 358.668 361.827C387.099 341.415 421.119 334.368 421.119 334.368" stroke="#E8ECFE" stroke-width="3.80002"/>
<path fill-rule="evenodd" clip-rule="evenodd" d="M18.8125 313.328H134.771V416.016C76.0589 398.277 36.9359 363.285 18.8125 313.328Z" fill="#DBE2FF"/>
<path fill-rule="evenodd" clip-rule="evenodd" d="M127.548 329.823C127.548 327.533 125.689 325.673 123.398 325.673C111.563 325.673 77.7249 325.673 65.8895 325.673C63.5985 325.673 61.74 327.533 61.74 329.823C61.74 334.072 61.74 340.638 61.74 344.888C61.74 347.183 63.5985 349.038 65.8895 349.038C77.7249 349.038 111.563 349.038 123.398 349.038C125.689 349.038 127.548 347.183 127.548 344.888C127.548 340.638 127.548 334.072 127.548 329.823Z" fill="#B7C6FF"/>
<path fill-rule="evenodd" clip-rule="evenodd" d="M108.216 337.355C108.216 336.324 107.38 335.49 106.35 335.49C101.621 335.49 89.1938 335.49 84.465 335.49C83.4347 335.49 82.5989 336.324 82.5989 337.355C82.5989 338.386 83.4347 339.22 84.465 339.22C89.1938 339.22 101.621 339.22 106.35 339.22C107.38 339.22 108.216 338.386 108.216 337.355Z" fill="white"/>
<path fill-rule="evenodd" clip-rule="evenodd" d="M127.547 367.151C127.547 366.474 127.277 365.822 126.797 365.343C126.317 364.865 125.67 364.597 124.99 364.597C114.505 364.597 74.7825 364.597 64.2922 364.597C63.6125 364.597 62.966 364.865 62.4859 365.343C62.0058 365.822 61.7397 366.474 61.7397 367.151C61.7397 369.17 61.7217 376.893 61.7217 376.893C68.2827 382.482 69.7407 383.454 75.7284 387.961H124.99C126.402 387.961 127.547 386.818 127.547 385.407C127.547 380.917 127.547 371.642 127.547 367.151Z" fill="#B7C6FF"/>
<path fill-rule="evenodd" clip-rule="evenodd" d="M18.8047 313.328H53.1519V368.737C41.5527 357.453 28.1877 338.985 18.8047 313.328Z" fill="#A9BAFF"/>
<path d="M424.278 122.958H356.724V210.924H424.278V122.958Z" fill="#D6DFFF"/>
<path d="M424.278 122.92H361.12V211.261H424.278V122.92Z" fill="#C2CEFF"/>
<path d="M420.876 126.36H364.5V208.008H420.876V126.36Z" fill="#F4F6FF"/>
<path fill-rule="evenodd" clip-rule="evenodd" d="M375.074 147.258C375.074 147.258 393.005 150.767 400.234 163.587C405.329 172.616 403.848 182.962 398.566 185.708C393.283 188.454 385.86 187.515 380.495 179.758C374.796 171.52 374.096 157.484 375.074 147.258Z" fill="#C2CEFF"/>
<path fill-rule="evenodd" clip-rule="evenodd" d="M412.719 147.258C412.719 147.258 394.18 150.767 386.707 163.587C381.438 172.616 382.97 182.962 388.431 185.708C393.892 188.454 401.568 187.515 407.114 179.758C413.007 171.52 413.73 157.484 412.719 147.258Z" fill="#C2CEFF"/>
<path d="M94.2178 202.477C113.333 202.477 128.83 187.019 128.83 167.951C128.83 148.883 113.333 133.426 94.2178 133.426C75.1022 133.426 59.606 148.883 59.606 167.951C59.606 187.019 75.1022 202.477 94.2178 202.477Z" fill="#C2CEFF"/>
<path d="M94.2187 196.657C110.114 196.657 123 183.804 123 167.948C123 152.093 110.114 139.239 94.2187 139.239C78.3233 139.239 65.4375 152.093 65.4375 167.948C65.4375 183.804 78.3233 196.657 94.2187 196.657Z" fill="#F1F4FF"/>
<path fill-rule="evenodd" clip-rule="evenodd" d="M107.139 152.755C107.792 153.281 107.895 154.236 107.369 154.889L95.4018 169.749C95.1263 170.091 94.7162 170.297 94.2773 170.313C93.8384 170.33 93.4138 170.156 93.113 169.836L85.7261 161.972C85.152 161.361 85.1821 160.4 85.7932 159.826C86.4042 159.252 87.365 159.282 87.939 159.893L94.1315 166.485L105.005 152.985C105.531 152.332 106.486 152.229 107.139 152.755Z" fill="#C2CEFF"/>
<path fill-rule="evenodd" clip-rule="evenodd" d="M249.466 112.756L245.836 113.199V282.729H249.466V112.756Z" fill="#C2CEFF"/>
<path fill-rule="evenodd" clip-rule="evenodd" d="M108.216 376.278C108.216 375.248 107.38 374.414 106.35 374.414C101.621 374.414 89.1938 374.414 84.465 374.414C83.4347 374.414 82.5989 375.248 82.5989 376.278C82.5989 377.309 83.4347 378.143 84.465 378.143C89.1938 378.143 101.621 378.143 106.35 378.143C107.38 378.143 108.216 377.309 108.216 376.278Z" fill="white"/>
<mask id="mask0_50_3343" style="mask-type:alpha" maskUnits="userSpaceOnUse" x="81" y="113" width="310" height="321">
<path d="M366.627 413.064L366.599 413.073L366.573 413.084C331.301 428.043 283.028 433.922 230.135 432.894C183.187 431.981 120.072 421.606 83.5218 401.314L82.9515 308.087L82.6832 264.221C82.4464 225.52 82.1254 173.065 81.7741 115.611C106.917 115.457 124.316 115.35 138.631 115.263C164.848 115.102 180.72 115.005 214.878 114.796C265.034 114.489 291.988 114.324 314.789 114.185C337.193 114.048 355.589 113.935 388.048 113.737L388.049 113.796L388.053 114.485L388.057 115.173L388.061 115.858L388.065 116.54L388.07 117.22L388.074 117.898L388.078 118.573L388.082 119.246L388.086 119.917L388.09 120.585L388.094 121.251L388.098 121.914L388.102 122.575L388.106 123.234L388.11 123.89L388.114 124.544L388.118 125.196L388.122 125.846L388.126 126.493L388.13 127.138L388.134 127.78L388.138 128.42L388.142 129.058L388.146 129.694L388.15 130.327L388.154 130.959L388.157 131.588L388.161 132.214L388.165 132.839L388.169 133.461L388.173 134.081L388.176 134.698L388.18 135.314L388.184 135.927L388.188 136.538L388.191 137.147L388.195 137.754L388.199 138.358L388.203 138.961L388.206 139.561L388.21 140.159L388.214 140.755L388.217 141.348L388.221 141.94L388.224 142.529L388.228 143.117L388.232 143.702L388.235 144.285L388.239 144.866L388.242 145.445L388.246 146.022L388.249 146.596L388.253 147.169L388.256 147.739L388.26 148.308L388.263 148.874L388.267 149.438L388.27 150.001L388.273 150.561L388.277 151.119L388.28 151.675L388.284 152.229L388.287 152.782L388.29 153.332L388.294 153.88L388.297 154.426L388.3 154.97L388.304 155.512L388.307 156.052L388.31 156.591L388.314 157.127L388.317 157.661L388.32 158.194L388.323 158.724L388.327 159.252L388.33 159.779L388.333 160.304L388.336 160.826L388.339 161.347L388.343 161.866L388.346 162.383L388.349 162.898L388.352 163.411L388.355 163.923L388.358 164.432L388.361 164.94L388.365 165.446L388.368 165.95L388.371 166.452L388.374 166.952L388.377 167.45L388.38 167.947L388.383 168.442L388.386 168.935L388.389 169.426L388.392 169.915L388.395 170.403L388.398 170.889L388.401 171.373L388.404 171.855L388.407 172.336L388.41 172.814L388.413 173.292L388.415 173.767L388.418 174.24L388.421 174.712L388.424 175.182L388.427 175.651L388.43 176.117L388.433 176.582L388.436 177.046L388.438 177.507L388.441 177.967L388.444 178.425L388.447 178.882L388.45 179.337L388.452 179.79L388.455 180.242L388.458 180.692L388.461 181.14L388.463 181.587L388.466 182.032L388.469 182.476L388.471 182.918L388.474 183.358L388.477 183.797L388.479 184.234L388.482 184.669L388.485 185.103L388.487 185.536L388.49 185.966L388.493 186.396L388.495 186.823L388.498 187.25L388.501 187.674L388.503 188.097L388.506 188.519L388.508 188.939L388.511 189.358L388.513 189.775L388.516 190.191L388.518 190.605L388.521 191.017L388.524 191.429L388.526 191.838L388.529 192.247L388.531 192.653L388.533 193.059L388.536 193.463L388.538 193.865L388.541 194.266L388.543 194.666L388.546 195.064L388.548 195.461L388.551 195.856L388.553 196.251L388.555 196.643L388.558 197.034L388.56 197.424L388.563 197.813L388.565 198.2L388.567 198.586L388.57 198.971L388.572 199.354L388.574 199.736L388.577 200.116L388.579 200.495L388.581 200.873L388.584 201.25L388.586 201.625L388.588 201.999L388.59 202.372L388.593 202.743L388.595 203.113L388.597 203.482L388.6 203.85L388.602 204.216L388.604 204.581L388.606 204.945L388.608 205.308L388.611 205.669L388.613 206.03L388.615 206.389L388.617 206.746L388.619 207.103L388.622 207.459L388.624 207.813L388.626 208.166L388.628 208.518L388.63 208.869L388.632 209.218L388.634 209.567L388.637 209.914L388.639 210.26L388.641 210.605L388.643 210.949L388.645 211.292L388.647 211.633L388.649 211.974L388.651 212.314L388.653 212.652L388.655 212.989L388.657 213.325L388.66 213.661L388.662 213.995L388.664 214.328L388.666 214.66L388.668 214.991L388.67 215.321L388.672 215.65L388.674 215.977L388.676 216.304L388.678 216.63L388.68 216.955L388.682 217.279L388.684 217.602L388.686 217.924L388.688 218.245L388.69 218.564L388.691 218.883L388.693 219.201L388.695 219.519L388.697 219.835L388.699 220.15L388.701 220.464L388.703 220.777L388.705 221.09L388.707 221.401L388.709 221.712L388.711 222.022L388.713 222.331L388.714 222.639L388.716 222.946L388.718 223.252L388.72 223.557L388.722 223.862L388.724 224.165L388.726 224.468L388.727 224.77L388.729 225.071L388.731 225.372L388.733 225.671L388.735 225.97L388.737 226.268L388.738 226.565L388.74 226.861L388.742 227.157L388.744 227.452L388.746 227.746L388.747 228.039L388.749 228.331L388.751 228.623L388.753 228.914L388.755 229.204L388.756 229.494L388.758 229.783L388.76 230.071L388.762 230.358L388.763 230.645L388.765 230.931L388.767 231.216L388.769 231.501L388.77 231.785L388.772 232.068L388.774 232.351L388.776 232.633L388.777 232.914L388.779 233.195L388.781 233.475L388.782 233.754L388.784 234.033L388.786 234.311L388.788 234.589L388.789 234.866L388.791 235.142L388.793 235.418L388.794 235.693L388.796 235.968L388.798 236.242L388.799 236.516L388.801 236.789L388.803 237.061L388.804 237.333L388.806 237.604L388.808 237.875L388.809 238.146L388.811 238.415L388.813 238.685L388.814 238.954L388.816 239.222L388.818 239.49L388.819 239.757L388.821 240.024L388.822 240.29L388.824 240.556L388.826 240.822L388.827 241.087L388.829 241.352L388.831 241.616L388.832 241.88L388.834 242.143L388.835 242.406L388.837 242.668L388.839 242.93L388.84 243.192L388.842 243.454L388.843 243.715L388.845 243.975L388.847 244.235L388.848 244.495L388.85 244.755L388.851 245.014L388.853 245.273L388.855 245.531L388.856 245.79L388.858 246.048L388.859 246.305L388.861 246.562L388.862 246.819L388.864 247.076L388.866 247.332L388.867 247.589L388.869 247.844L388.87 248.1L388.872 248.355L388.873 248.61L388.875 248.865L388.876 249.12L388.878 249.374L388.88 249.628L388.881 249.882L388.883 250.136L388.884 250.389L388.886 250.643L388.887 250.896L388.889 251.149L388.89 251.402L388.892 251.654L388.894 251.907L388.895 252.159L388.897 252.411L388.898 252.663L388.9 252.915L388.901 253.167L388.903 253.418L388.904 253.67L388.906 253.921L388.907 254.172L388.909 254.423L388.91 254.674L388.912 254.925L388.914 255.176L388.915 255.427L388.917 255.678L388.918 255.929L388.92 256.179L388.921 256.43L388.923 256.681L388.924 256.931L388.926 257.182L388.927 257.432L388.929 257.683L388.93 257.933L388.932 258.184L388.933 258.434L388.935 258.685L388.937 258.935L388.938 259.186L388.94 259.437L388.941 259.687L388.943 259.938L388.944 260.189L388.946 260.44L388.947 260.691L388.949 260.942L388.95 261.193L388.952 261.444L388.953 261.695L388.955 261.947L388.956 262.198L388.958 262.45L388.96 262.702L388.961 262.954L388.963 263.206L388.964 263.458L388.966 263.71L388.967 263.962L388.969 264.215L388.97 264.468L388.972 264.721L388.973 264.974L388.975 265.227L388.977 265.481L388.978 265.735L388.98 265.989L388.981 266.243L388.983 266.497L388.984 266.752L388.986 267.007L388.987 267.262L388.989 267.518L388.991 267.773L388.992 268.029L388.994 268.285L388.995 268.542L388.997 268.799L388.998 269.056L389 269.313L389.002 269.571L389.003 269.829L389.005 270.087L389.006 270.346L389.008 270.604L389.009 270.864L389.011 271.123L389.013 271.383L389.014 271.644L389.016 271.904L389.017 272.166L389.019 272.427L389.021 272.689L389.022 272.951L389.024 273.214L389.025 273.477L389.027 273.74L389.029 274.004L389.03 274.269L389.032 274.533L389.034 274.798L389.035 275.064L389.037 275.33L389.038 275.597L389.04 275.864L389.042 276.131L389.043 276.399L389.045 276.668L389.047 276.937L389.048 277.206L389.05 277.476L389.052 277.747L389.053 278.018L389.055 278.289L389.057 278.561L389.058 278.834L389.06 279.107L389.062 279.381L389.063 279.655L389.065 279.93L389.067 280.205L389.068 280.481L389.07 280.758L389.072 281.035L389.073 281.313L389.075 281.591L389.077 281.87L389.079 282.15L389.08 282.43L389.082 282.711L389.084 282.992L389.085 283.275L389.087 283.557L389.089 283.841L389.091 284.125L389.092 284.41L389.094 284.695L389.096 284.982L389.098 285.269L389.099 285.556L389.101 285.844L389.103 286.133L389.105 286.423L389.106 286.714L389.108 287.005L389.11 287.297L389.112 287.59L389.114 287.883L389.115 288.177L389.117 288.472L389.119 288.768L389.121 289.065L389.123 289.362L389.124 289.66L389.126 289.959L389.128 290.259L389.13 290.559L389.132 290.861L389.134 291.163L389.136 291.466L389.137 291.77L389.139 292.075L389.141 292.38L389.143 292.687L389.145 292.994L389.147 293.302L389.149 293.611L389.151 293.921L389.152 294.232L389.154 294.544L389.156 294.857L389.158 295.17L389.16 295.485L389.162 295.8L389.164 296.117L389.166 296.434L389.168 296.752L389.17 297.072L389.172 297.392L389.174 297.713L389.176 298.035L389.178 298.358L389.18 298.682L389.182 299.007L389.184 299.33L389.186 299.652L389.188 299.973L389.19 300.293L389.191 300.612L389.193 300.93L389.195 301.247L389.197 301.563L389.199 301.878L389.201 302.192L389.203 302.505L389.205 302.817L389.207 303.128L389.209 303.438L389.211 303.747L389.213 304.055L389.214 304.362L389.216 304.668L389.218 304.973L389.22 305.277L389.222 305.58L389.224 305.882L389.226 306.184L389.227 306.484L389.229 306.783L389.231 307.082L389.233 307.379L389.235 307.676L389.236 307.971L389.238 308.266L389.24 308.56L389.242 308.852L389.244 309.144L389.245 309.435L389.247 309.725L389.249 310.014L389.251 310.303L389.253 310.59L389.254 310.876L389.256 311.162L389.258 311.446L389.259 311.73L389.261 312.013L389.263 312.295L389.265 312.576L389.266 312.856L389.268 313.135L389.27 313.414L389.271 313.691L389.273 313.968L389.275 314.244L389.277 314.519L389.278 314.793L389.28 315.066L389.282 315.339L389.283 315.61L389.285 315.881L389.287 316.151L389.288 316.42L389.29 316.688L389.291 316.955L389.293 317.222L389.295 317.488L389.296 317.753L389.298 318.017L389.3 318.28L389.301 318.542L389.303 318.804L389.304 319.065L389.306 319.325L389.308 319.584L389.309 319.843L389.311 320.1L389.312 320.357L389.314 320.613L389.315 320.869L389.317 321.123L389.319 321.377L389.32 321.63L389.322 321.882L389.323 322.134L389.325 322.384L389.326 322.634L389.328 322.884L389.329 323.132L389.331 323.38L389.332 323.627L389.334 323.873L389.335 324.119L389.337 324.363L389.338 324.607L389.34 324.851L389.341 325.093L389.343 325.335L389.344 325.576L389.346 325.817L389.347 326.056L389.349 326.295L389.35 326.534L389.352 326.771L389.353 327.008L389.354 327.245L389.356 327.48L389.357 327.715L389.359 327.949L389.36 328.183L389.362 328.415L389.363 328.648L389.364 328.879L389.366 329.11L389.367 329.34L389.369 329.57L389.37 329.798L389.371 330.027L389.373 330.254L389.374 330.481L389.376 330.707L389.377 330.933L389.378 331.158L389.38 331.382L389.381 331.606L389.382 331.829L389.384 332.052L389.385 332.273L389.387 332.495L389.388 332.715L389.389 332.935L389.391 333.155L389.392 333.373L389.393 333.592L389.395 333.809L389.396 334.026L389.397 334.243L389.399 334.459L389.4 334.674L389.401 334.889L389.402 335.103L389.404 335.316L389.405 335.529L389.406 335.742L389.408 335.953L389.409 336.165L389.41 336.375L389.412 336.586L389.413 336.795L389.414 337.004L389.415 337.213L389.417 337.421L389.418 337.628L389.419 337.835L389.42 338.042L389.422 338.248L389.423 338.453L389.424 338.658L389.425 338.862L389.427 339.066L389.428 339.269L389.429 339.472L389.43 339.674L389.432 339.876L389.433 340.078L389.434 340.278L389.435 340.479L389.437 340.679L389.438 340.878L389.439 341.077L389.44 341.275L389.441 341.473L389.443 341.671L389.444 341.868L389.445 342.064L389.446 342.26L389.447 342.456L389.449 342.651L389.45 342.846L389.451 343.04L389.452 343.234L389.453 343.428L389.455 343.621L389.456 343.813L389.457 344.005L389.458 344.197L389.459 344.388L389.46 344.579L389.462 344.77L389.463 344.96L389.464 345.149L389.465 345.338L389.466 345.527L389.467 345.716L389.469 345.904L389.47 346.091L389.471 346.279L389.472 346.466L389.473 346.652L389.474 346.838L389.475 347.024L389.477 347.209L389.478 347.394L389.479 347.579L389.48 347.763L389.481 347.947L389.482 348.131L389.483 348.314L389.484 348.497L389.486 348.679L389.487 348.861L389.488 349.043L389.489 349.225L389.49 349.406L389.491 349.587L389.492 349.767L389.493 349.948L389.494 350.128L389.496 350.307L389.497 350.486L389.498 350.665L389.499 350.844L389.5 351.022L389.501 351.2L389.502 351.378L389.503 351.556L389.504 351.733L389.505 351.91L389.506 352.086L389.507 352.263L389.509 352.439L389.51 352.615L389.511 352.79L389.512 352.965L389.513 353.14L389.514 353.315L389.515 353.49L389.516 353.664L389.517 353.838L389.518 354.012L389.519 354.185L389.52 354.359L389.521 354.532L389.522 354.705L389.523 354.877L389.525 355.049L389.526 355.222L389.527 355.394L389.528 355.565L389.529 355.737L389.53 355.908L389.531 356.079L389.532 356.25L389.533 356.421L389.534 356.591L389.535 356.762L389.536 356.932L389.537 357.102L389.538 357.272L389.539 357.441L389.54 357.611L389.541 357.78L389.542 357.949L389.543 358.118L389.544 358.287L389.545 358.455L389.546 358.624L389.547 358.792L389.548 358.96L389.549 359.128L389.55 359.296L389.552 359.464L389.553 359.632L389.554 359.799L389.555 359.966L389.556 360.134L389.557 360.301L389.558 360.468L389.559 360.635L389.56 360.801L389.561 360.968L389.562 361.135L389.563 361.301L389.564 361.468L389.565 361.634L389.566 361.8L389.567 361.966L389.568 362.132L389.569 362.298L389.57 362.464L389.571 362.63L389.572 362.796L389.573 362.961L389.574 363.127L389.575 363.292L389.576 363.458L389.577 363.623L389.578 363.789L389.579 363.954L389.58 364.119L389.581 364.285L389.582 364.45L389.583 364.615L389.584 364.78L389.585 364.945L389.586 365.11L389.587 365.276L389.588 365.441L389.589 365.606L389.59 365.771L389.591 365.936L389.592 366.101L389.593 366.266L389.594 366.431L389.595 366.596L389.596 366.761L389.597 366.926L389.598 367.091L389.599 367.257L389.6 367.422L389.601 367.587L389.602 367.752L389.603 367.917L389.604 368.083L389.605 368.248L389.606 368.413L389.607 368.579L389.608 368.744L389.609 368.91L389.61 369.075L389.611 369.241L389.612 369.407L389.613 369.573L389.614 369.738L389.615 369.904L389.616 370.07L389.617 370.236L389.618 370.403L389.619 370.569L389.62 370.735L389.621 370.902L389.623 371.068L389.624 371.235L389.625 371.402L389.626 371.569L389.627 371.736L389.628 371.903L389.629 372.07L389.63 372.237L389.631 372.405L389.632 372.572L389.633 372.74L389.634 372.908L389.635 373.076L389.636 373.244L389.637 373.412L389.638 373.581L389.639 373.749L389.64 373.918L389.641 374.087L389.642 374.256L389.643 374.425L389.644 374.595L389.645 374.764L389.646 374.934L389.647 375.104L389.648 375.274L389.649 375.444L389.65 375.615L389.651 375.785L389.652 375.956L389.653 376.127L389.655 376.299L389.656 376.47L389.657 376.642L389.658 376.814L389.659 376.986L389.66 377.158L389.661 377.331L389.662 377.503L389.663 377.676L389.664 377.85L389.665 378.023L389.666 378.197L389.667 378.371L389.668 378.545L389.669 378.719L389.67 378.894L389.671 379.069L389.673 379.244L389.674 379.42L389.675 379.596L389.676 379.772L389.677 379.948L389.678 380.124L389.679 380.301L389.68 380.478L389.681 380.656L389.682 380.834L389.683 381.012L389.684 381.19L389.686 381.368L389.687 381.547L389.688 381.727L389.689 381.906L389.69 382.086L389.691 382.266L389.692 382.446L389.693 382.627L389.694 382.808L389.695 382.99L389.697 383.172L389.698 383.354L389.699 383.536L389.7 383.719L389.701 383.902L389.702 384.086L389.703 384.269L389.704 384.454L389.706 384.638L389.707 384.823L389.708 385.008L389.709 385.194L389.71 385.38L389.711 385.566L389.712 385.753L389.713 385.94L389.715 386.128L389.716 386.316L389.717 386.504L389.718 386.693L389.719 386.882L389.72 387.072L389.722 387.262L389.723 387.452L389.724 387.643L389.725 387.834L389.726 388.026L389.727 388.218L389.729 388.41L389.73 388.603L389.731 388.796L389.732 388.99L389.733 389.184L389.735 389.379L389.736 389.574L389.737 389.77L389.738 389.966L389.739 390.162L389.741 390.359L389.742 390.556L389.743 390.754L389.744 390.952L389.745 391.151L389.747 391.35L389.748 391.55L389.749 391.75L389.75 391.951L389.752 392.152L389.753 392.354L389.754 392.556L389.755 392.759L389.756 392.962L389.758 393.166L389.759 393.37L389.76 393.575L389.761 393.78L389.763 393.986L389.764 394.192L389.765 394.399L389.767 394.606L389.768 394.814L389.769 395.023L389.77 395.232L389.772 395.441L389.773 395.651L389.774 395.862L389.775 396.073L389.777 396.285L389.778 396.497L389.779 396.71L389.781 396.923L389.782 397.137L389.783 397.352L389.785 397.567L389.786 397.783L389.787 397.999L389.789 398.216L389.79 398.433L389.791 398.651L389.793 398.87L389.794 399.089L389.795 399.309L389.797 399.53L389.798 399.751L389.799 399.973L389.801 400.195L389.802 400.418L389.803 400.641L389.805 400.866L389.806 401.09L389.808 401.316L389.809 401.542L389.81 401.769L389.812 401.996L389.813 402.224L389.815 402.453L389.816 402.682L389.817 402.912L389.819 403.143L389.82 403.374L389.822 403.606L389.823 403.839L389.823 403.91C383.336 407.105 375.663 410.165 366.627 413.064Z" fill="#F4F6FF" stroke="black" stroke-width="1.26667"/>
</mask>
<g mask="url(#mask0_50_3343)">
<path fill-rule="evenodd" clip-rule="evenodd" d="M307.34 304.896C294.751 289.573 264.638 273.273 234.039 272.369C197.006 271.275 160.523 289.424 150.404 308.798C137.023 334.415 135.897 391.293 136.295 419.838C136.334 422.672 136.82 433.921 136.82 433.921H319.397C319.397 433.921 319.938 422.322 320.01 420.192C321.06 390.258 321.844 322.549 307.34 304.896Z" fill="#FFB8C0"/>
<path fill-rule="evenodd" clip-rule="evenodd" d="M307.336 301.277C294.747 285.954 264.717 268.92 234.119 268.016C219.05 267.571 166.654 270.387 148.092 311.461C137.194 335.576 136.82 374.913 136.82 374.913L174.728 374.63V433.921H281.226L281.497 375.284L320.515 375.049C320.515 375.049 320.431 372.587 320.515 368.548C320.805 353.859 319.986 316.674 307.336 301.277Z" fill="#688BFF"/>
<path d="M231.025 341.751C232.317 341.751 233.365 340.667 233.365 339.328C233.365 337.99 232.317 336.905 231.025 336.905C229.733 336.905 228.685 337.99 228.685 339.328C228.685 340.667 229.733 341.751 231.025 341.751Z" fill="#9EB4FF"/>
<path d="M229.373 368.599C230.665 368.599 231.712 367.514 231.712 366.176C231.712 364.837 230.665 363.753 229.373 363.753C228.08 363.753 227.033 364.837 227.033 366.176C227.033 367.514 228.08 368.599 229.373 368.599Z" fill="#9EB4FF"/>
<path d="M229.373 395.451C230.665 395.451 231.712 394.366 231.712 393.028C231.712 391.69 230.665 390.605 229.373 390.605C228.08 390.605 227.033 391.69 227.033 393.028C227.033 394.366 228.08 395.451 229.373 395.451Z" fill="#9EB4FF"/>
<path d="M229.373 422.299C230.665 422.299 231.712 421.214 231.712 419.875C231.712 418.537 230.665 417.452 229.373 417.452C228.08 417.452 227.033 418.537 227.033 419.875C227.033 421.214 228.08 422.299 229.373 422.299Z" fill="#9EB4FF"/>
<path fill-rule="evenodd" clip-rule="evenodd" d="M174.729 433.921V370.36C175.15 355.788 176.743 339.06 182.042 328.159C182.542 340.23 182.931 370.36 182.931 370.36L182.575 433.921H174.729Z" fill="#4A74FF"/>
<path fill-rule="evenodd" clip-rule="evenodd" d="M291.612 433.921H281.25L281.232 375.079L291.691 375.049C291.691 388.843 291.59 434.196 291.612 433.921Z" fill="#FF8C99"/>
<path fill-rule="evenodd" clip-rule="evenodd" d="M291.691 375.049L281.232 375.079L281.228 353.557C283.208 350.109 286.088 346.464 287.478 341.749C287.478 341.749 287.766 342.976 287.902 343.604C290.646 356.338 291.691 371.281 291.691 375.049Z" fill="#4A74FF"/>
<path d="M279.721 305.547C279.721 305.547 288.879 316.054 288.879 330.292C288.879 344.531 282.091 353.614 282.091 353.614" stroke="#4A74FF" stroke-width="6.34657" stroke-miterlimit="1.5" stroke-linecap="round" stroke-linejoin="round"/>
<path fill-rule="evenodd" clip-rule="evenodd" d="M210.733 269.641L235.911 323.63L208.537 293.697L215.547 285.021L203.775 285.29L205.304 270.67L210.733 269.641Z" fill="#9EB4FF"/>
<path fill-rule="evenodd" clip-rule="evenodd" d="M246.717 269.159L231.501 318.4L247.905 293.215L243.707 285.554L252.667 284.808L250.201 269.846L246.717 269.159Z" fill="#9EB4FF"/>
<path fill-rule="evenodd" clip-rule="evenodd" d="M210.733 269.637L232.383 316.573L246.772 269.159C246.772 269.159 235.228 267.302 227.362 267.589C219.99 267.863 210.733 269.637 210.733 269.637Z" fill="#FFB8C0"/>
<path fill-rule="evenodd" clip-rule="evenodd" d="M240.016 282.645H234.169C233.902 282.645 233.661 282.809 233.555 283.059L232.425 285.763C232.277 286.112 232.435 286.516 232.775 286.664C233.116 286.812 233.507 286.651 233.655 286.303L234.612 284.016H240.016C240.386 284.016 240.684 283.707 240.684 283.329C240.684 282.951 240.386 282.645 240.016 282.645Z" fill="#FF9CA0"/>
<path fill-rule="evenodd" clip-rule="evenodd" d="M218.96 282.645H224.807C225.074 282.645 225.315 282.809 225.421 283.059L226.551 285.763C226.699 286.112 226.542 286.516 226.201 286.664C225.861 286.812 225.469 286.651 225.321 286.303L224.364 284.016H218.96C218.591 284.016 218.292 283.707 218.292 283.329C218.292 282.951 218.591 282.645 218.96 282.645Z" fill="#FF9CA0"/>
<path fill-rule="evenodd" clip-rule="evenodd" d="M238.728 258.722L220.188 253.722L220.119 272.436C220.119 272.436 220.429 276.781 230.289 276.631C241.195 276.463 240.554 272.295 240.554 272.295L238.728 258.722Z" fill="#FFB8C0"/>
<path fill-rule="evenodd" clip-rule="evenodd" d="M238.724 258.722L229.579 256.494C230.379 261.889 234.629 269.851 240.597 272.388L238.724 258.722Z" fill="#FF9CA0"/>
<path fill-rule="evenodd" clip-rule="evenodd" d="M215.94 227.296C215.94 227.296 232.82 228.482 241.813 228.284C250.608 228.085 254.988 224.702 254.988 224.702C254.988 224.702 251.587 209.305 236.406 209.305C214.432 209.305 215.94 227.296 215.94 227.296Z" fill="#FFB8C0"/>
<path fill-rule="evenodd" clip-rule="evenodd" d="M261.555 224.71C261.144 230.026 266.076 270.843 266.076 270.843C266.076 270.843 249.681 271.589 240.542 270.843L238.778 259.676L220.571 254.82V270.863L198.421 270.917C205.408 243.653 195.131 202.57 223.813 206.982C223.813 206.982 233.874 202.088 241.204 203.651C262.221 208.131 261.555 224.71 261.555 224.71Z" fill="#382149"/>
<path fill-rule="evenodd" clip-rule="evenodd" d="M220.624 240.636L220.571 254.822C226.676 256.887 232.943 258.667 239.563 259.822C239.563 259.822 256.535 263.344 256.932 248.063C257.342 232.346 254.987 224.71 254.987 224.71C251.631 225.566 247.004 222.745 243.043 223.135C236.33 223.797 229.789 227.117 221.934 225.479C209.699 222.927 209.284 240.322 220.624 240.636Z" fill="#FFB8C0"/>
<path d="M220.492 228.365C220.492 228.365 215.473 228.053 215.389 232.938" stroke="#310234" stroke-width="6.35856" stroke-miterlimit="1.5" stroke-linecap="round" stroke-linejoin="round"/>
<path fill-rule="evenodd" clip-rule="evenodd" d="M223.649 224.71L222.352 237.161C224.791 237.205 226.78 234.559 227.521 230.801C237.136 231.652 242.134 229.107 243.391 223.1L223.649 224.71Z" fill="#382149"/>
<path fill-rule="evenodd" clip-rule="evenodd" d="M243.042 221.473C243.042 221.473 243.594 228.199 249.319 228.922C255.043 229.645 257.849 229.469 257.849 229.469L255.63 221.847L243.042 221.473Z" fill="#382149"/>
<path fill-rule="evenodd" clip-rule="evenodd" d="M220.238 233.313C221.274 219.08 225.542 210.109 236.462 203.344C232.105 200.892 228.496 201.362 225.003 203.344C216.341 210.766 212.567 218.52 211.602 231.773L220.238 233.313Z" fill="#E83230"/>
<path d="M215.956 242.019C221.598 242.019 226.171 237.445 226.171 231.804C226.171 226.161 221.598 221.588 215.956 221.588C210.314 221.588 205.74 226.161 205.74 231.804C205.74 237.445 210.314 242.019 215.956 242.019Z" fill="#E83230"/>
<path d="M212.706 240.118C217.3 240.118 221.026 236.393 221.026 231.798C221.026 227.203 217.3 223.478 212.706 223.478C208.111 223.478 204.386 227.203 204.386 231.798C204.386 236.393 208.111 240.118 212.706 240.118Z" fill="#C51816"/>
<path d="M212.704 236.09C215.074 236.09 216.995 234.169 216.995 231.799C216.995 229.429 215.074 227.508 212.704 227.508C210.334 227.508 208.413 229.429 208.413 231.799C208.413 234.169 210.334 236.09 212.704 236.09Z" fill="#E83230"/>
<path fill-rule="evenodd" clip-rule="evenodd" d="M246.546 235.7L250.392 244.535L246.665 245.016L246.546 235.7Z" fill="#FF5F71"/>
<path d="M237.733 237.614C237.733 237.614 240.657 235.933 242.554 237.331" stroke="#310234" stroke-width="4.5745" stroke-miterlimit="1.5" stroke-linecap="round" stroke-linejoin="round"/>
<path d="M250.058 236.282C250.058 236.282 252.732 234.227 254.798 235.359" stroke="#310234" stroke-width="4.5745" stroke-miterlimit="1.5" stroke-linecap="round" stroke-linejoin="round"/>
<path fill-rule="evenodd" clip-rule="evenodd" d="M249.241 248.49C249.185 247.998 248.93 247.548 248.536 247.247C248.142 246.946 247.642 246.818 247.151 246.893L247.021 246.913C246.052 247.061 245.373 247.949 245.484 248.923C245.562 249.605 245.651 250.39 245.73 251.086C245.786 251.579 246.041 252.028 246.435 252.329C246.829 252.631 247.329 252.758 247.819 252.683L247.95 252.663C248.919 252.515 249.598 251.628 249.487 250.653C249.409 249.971 249.32 249.186 249.241 248.49Z" fill="white"/>
</g>
</svg>
 -->

<svg width="520" height="486" viewBox="0 0 520 486" fill="none" xmlns="http://www.w3.org/2000/svg">
<path d="M91.2985 96.9337C91.4657 97.6035 92.1443 98.0109 92.8141 97.8436C93.4838 97.6764 93.8912 96.9978 93.724 96.328L91.2985 96.9337ZM83.9808 62.468C87.5531 61.5761 89.7258 57.9571 88.8339 54.3849C87.9419 50.8127 84.3229 48.6399 80.7507 49.5319C77.1785 50.4239 75.0057 54.0428 75.8977 57.615C76.7897 61.1873 80.4086 63.36 83.9808 62.468ZM93.724 96.328L83.5785 55.6971L81.153 56.3028L91.2985 96.9337L93.724 96.328Z" fill="#F4F6FF"/>
<path d="M70.8565 106.371C71.0821 106.875 71.6737 107.101 72.1778 106.876C72.6819 106.65 72.9077 106.059 72.6821 105.554L70.8565 106.371ZM67.8653 97.2394C70.5539 96.0362 71.758 92.8813 70.5548 90.1928C69.3516 87.5042 66.1967 86.3001 63.5082 87.5033C60.8196 88.7065 59.6155 91.8614 60.8187 94.5499C62.0219 97.2385 65.1768 98.4426 67.8653 97.2394ZM72.6821 105.554L66.5995 91.9629L64.774 92.7798L70.8565 106.371L72.6821 105.554Z" fill="#E5EAFF"/>
<path d="M417.092 378.971C416.713 378.569 416.08 378.551 415.678 378.929C415.276 379.308 415.257 379.941 415.636 380.343L417.092 378.971ZM461.706 427.776C459.562 429.796 459.462 433.171 461.482 435.315C463.502 437.459 466.878 437.559 469.021 435.539C471.165 433.519 471.265 430.143 469.245 428C467.225 425.856 463.85 425.756 461.706 427.776ZM415.636 380.343L464.636 432.343L466.092 430.971L417.092 378.971L415.636 380.343Z" fill="#CDD7FF"/>
<path d="M432.045 369.924C431.648 369.539 431.015 369.548 430.631 369.945C430.246 370.341 430.255 370.974 430.652 371.359L432.045 369.924ZM461.521 399.927C459.47 402.04 459.52 405.417 461.634 407.468C463.747 409.52 467.124 409.469 469.175 407.356C471.227 405.242 471.176 401.865 469.063 399.814C466.949 397.763 463.573 397.813 461.521 399.927ZM430.652 371.359L464.652 404.359L466.045 402.924L432.045 369.924L430.652 371.359Z" fill="#CDD7FF"/>
<path d="M403.208 396.11C402.88 395.666 402.254 395.571 401.809 395.898C401.365 396.226 401.27 396.852 401.598 397.297L403.208 396.11ZM413.239 411.41C410.868 413.157 410.362 416.496 412.109 418.867C413.856 421.238 417.195 421.744 419.566 419.997C421.938 418.25 422.443 414.911 420.696 412.54C418.949 410.168 415.61 409.662 413.239 411.41ZM401.598 397.297L415.598 416.297L417.208 415.11L403.208 396.11L401.598 397.297Z" fill="#CDD7FF"/>
<path d="M444.604 356.203C444.163 355.869 443.536 355.956 443.203 356.396C442.869 356.837 442.956 357.464 443.396 357.797L444.604 356.203ZM509.748 406.781C507.97 409.129 508.432 412.474 510.781 414.252C513.129 416.03 516.474 415.568 518.252 413.219C520.03 410.871 519.568 407.526 517.219 405.748C514.871 403.97 511.526 404.432 509.748 406.781ZM443.396 357.797L513.396 410.797L514.604 409.203L444.604 356.203L443.396 357.797Z" fill="#CDD7FF"/>
<path d="M100.802 392.597C101.132 392.154 101.04 391.528 100.597 391.198C100.154 390.868 99.5278 390.96 99.198 391.403L100.802 392.597ZM68.1854 434.722C65.823 432.963 62.4817 433.452 60.7224 435.815C58.9632 438.177 59.4521 441.518 61.8146 443.278C64.177 445.037 67.5183 444.548 69.2776 442.185C71.0368 439.823 70.5479 436.482 68.1854 434.722ZM99.198 391.403L64.198 438.403L65.802 439.597L100.802 392.597L99.198 391.403Z" fill="#DBE2FF"/>
<path d="M118.86 401.51C119.142 401.035 118.985 400.421 118.51 400.14C118.035 399.858 117.421 400.015 117.14 400.49L118.86 401.51ZM104.719 423.412C102.185 421.91 98.9134 422.747 97.4118 425.281C95.9101 427.815 96.747 431.087 99.2811 432.588C101.815 434.09 105.087 433.253 106.588 430.719C108.09 428.185 107.253 424.913 104.719 423.412ZM117.14 400.49L101.14 427.49L102.86 428.51L118.86 401.51L117.14 400.49Z" fill="#DBE2FF"/>
<path d="M134.994 408.113C135.056 407.564 134.662 407.069 134.113 407.006C133.564 406.944 133.069 407.338 133.006 407.887L134.994 408.113ZM129.602 446.701C126.676 446.368 124.033 448.471 123.701 451.398C123.368 454.324 125.471 456.967 128.398 457.299C131.324 457.632 133.967 455.529 134.299 452.602C134.632 449.676 132.529 447.033 129.602 446.701ZM133.006 407.887L128.006 451.887L129.994 452.113L134.994 408.113L133.006 407.887Z" fill="#DBE2FF"/>
<path fill-rule="evenodd" clip-rule="evenodd" d="M8.25528 261.438C8.25528 261.438 -3.02476 117.441 83.8477 94.9492C170.72 72.462 200.697 117.023 243.246 113.641C285.8 110.258 348.416 51.5883 396.37 64.5645C444.319 77.5358 482.679 108.562 478.164 241.697C473.654 374.827 392.202 432.054 251.505 431.568C110.808 431.082 17.0567 380.673 8.25528 261.438Z" fill="#F4F6FF"/>
<path d="M8.26172 259.038H477.009L476.28 264.384H8.50472L8.26172 259.038Z" fill="#E5EAFF"/>
<path d="M10.6919 203.148H478.71V208.008H9.96289L10.6919 203.148Z" fill="#E5EAFF"/>
<path d="M25.3064 148.716H471.646L472.878 154.062H22.8418L25.3064 148.716Z" fill="#E5EAFF"/>
<path d="M61.7218 104.49H168.156V109.836H53.9458L61.7218 104.49Z" fill="#E5EAFF"/>
<path d="M314.442 104.49H454.896L458.055 109.836H314.442V104.49Z" fill="#E5EAFF"/>
<path d="M24.7856 313.956H466.074L464.13 319.302H24.7856V313.956Z" fill="#E5EAFF"/>
<rect x="369.846" y="301.806" width="32.076" height="55.404" fill="#B9C7FF"/>
<rect x="399.492" y="301.806" width="5.83196" height="55.404" fill="#DBE2FF"/>
<rect x="355.752" y="296.946" width="45.198" height="4.86" fill="#C0CDFF"/>
<path d="M400.95 296.946L470.934 296.946L469.719 301.806H400.95V296.946Z" fill="#CED7FC"/>
<path d="M399.492 301.806L469.719 301.806L467.046 310.554H399.492V301.806Z" fill="#DBE2FF"/>
<rect x="381.996" y="262.44" width="62.694" height="34.506" rx="10.1334" fill="#B9C7FF"/>
<path fill-rule="evenodd" clip-rule="evenodd" d="M391.305 237.602C391.871 237.241 392.622 237.407 392.983 237.972L407.987 261.486L414.158 245.953C414.405 245.33 415.112 245.025 415.735 245.273C416.359 245.521 416.664 246.227 416.416 246.851L408.493 266.796L390.935 239.28C390.574 238.714 390.74 237.963 391.305 237.602Z" fill="#B9C7FF"/>
<rect x="394.632" y="262.44" width="52.488" height="34.506" rx="10.1334" fill="#DBE2FF"/>
<rect x="426.222" y="279.45" width="16.038" height="1.458" fill="#B9C7FF"/>
<rect x="426.222" y="282.852" width="16.038" height="1.45798" fill="#B9C7FF"/>
<rect x="426.222" y="286.254" width="16.038" height="1.458" fill="#B9C7FF"/>
<circle cx="410.913" cy="283.095" r="9.47699" fill="white"/>
<circle cx="410.913" cy="283.095" r="7.04699" fill="#DBE2FF"/>
<rect x="400.464" y="266.328" width="43.254" height="4.86" fill="#B9C7FF"/>
<rect x="401.922" y="266.328" width="40.338" height="4.86" fill="white"/>
<path fill-rule="evenodd" clip-rule="evenodd" d="M235.82 352.413H101.574V403.137C101.574 403.137 158.193 433.026 246.645 431.325C356.238 433.998 406.296 394.389 406.296 394.389L323.893 355.762L235.82 352.413Z" fill="#C2CEFF"/>
<path d="M172.773 412.857C157.538 414.941 137.619 412.614 133.893 411.399L132.435 396.333H156.249L242.514 394.632L355.509 398.763L382.725 407.754L374.463 411.399L359.64 416.502C350.487 414.801 332.764 412.857 321.489 412.857C307.395 412.857 299.619 416.016 283.581 417.96C267.543 419.904 248.346 418.932 230.121 416.502C211.896 414.072 195.858 409.698 172.773 412.857Z" fill="#B6C4FF"/>
<path fill-rule="evenodd" clip-rule="evenodd" d="M164.849 92.6019V284.849H334.837V75.1497C333.025 75.9661 329.516 77.1567 325.453 79.3097C305.259 89.9969 262.37 113.962 243.154 113.962C211.928 113.962 181.315 94.575 164.849 92.6019Z" fill="#C2CEFF"/>
<path fill-rule="evenodd" clip-rule="evenodd" d="M333.882 291.919C333.882 291.191 333.505 290.491 332.842 289.977C332.178 289.459 331.276 289.17 330.336 289.17C308.099 289.17 188.102 289.17 165.869 289.17C164.93 289.17 164.027 289.459 163.364 289.977C162.697 290.491 162.324 291.191 162.324 291.919C162.324 293.24 162.324 294.818 162.324 296.139C162.324 296.87 162.697 297.57 163.364 298.084C164.027 298.599 164.93 298.89 165.869 298.89C188.102 298.89 308.099 298.89 330.336 298.89C331.276 298.89 332.178 298.599 332.842 298.084C333.505 297.57 333.882 296.87 333.882 296.139C333.882 294.818 333.882 293.24 333.882 291.919Z" fill="#BFCBFE"/>
<path fill-rule="evenodd" clip-rule="evenodd" d="M342.63 286.013C342.63 285.176 342.222 284.372 341.504 283.779C340.786 283.184 339.81 282.852 338.793 282.852C314.729 282.852 184.874 282.852 160.814 282.852C159.798 282.852 158.821 283.184 158.103 283.779C157.381 284.372 156.978 285.176 156.978 286.013C156.978 287.532 156.978 289.348 156.978 290.867C156.978 291.707 157.381 292.511 158.103 293.103C158.821 293.696 159.798 294.03 160.814 294.03C184.874 294.03 314.729 294.03 338.793 294.03C339.81 294.03 340.786 293.696 341.504 293.103C342.222 292.511 342.63 291.707 342.63 290.867C342.63 289.348 342.63 287.532 342.63 286.013Z" fill="#ACBCFF"/>
<path fill-rule="evenodd" clip-rule="evenodd" d="M174.234 94.9036V276.308H325.455V79.3092C315.831 83.9759 264.425 113.305 243.893 113.305C216.115 113.305 194.887 100.032 174.234 94.9036Z" fill="#E8EDFF"/>
<path fill-rule="evenodd" clip-rule="evenodd" d="M173.988 94.8377V276.534H325.62V79.2181C315.97 83.8923 264.424 113.268 243.836 113.268C215.983 113.268 194.697 99.9742 173.988 94.8377Z" fill="#FDFDFF"/>
<path fill-rule="evenodd" clip-rule="evenodd" d="M221.371 138.237C221.522 138.37 221.536 138.6 221.403 138.751L199.533 163.537C199.4 163.688 199.17 163.703 199.019 163.569C198.868 163.436 198.853 163.206 198.986 163.055L220.856 138.269C220.99 138.118 221.22 138.104 221.371 138.237Z" fill="#E6EBFF"/>
<path fill-rule="evenodd" clip-rule="evenodd" d="M201.924 122.679C202.078 122.809 202.098 123.039 201.968 123.193L186.416 141.661C186.287 141.815 186.057 141.835 185.903 141.705C185.749 141.575 185.729 141.345 185.859 141.191L201.411 122.723C201.54 122.569 201.77 122.55 201.924 122.679Z" fill="#E6EBFF"/>
<path fill-rule="evenodd" clip-rule="evenodd" d="M296.701 109.563C296.852 109.696 296.866 109.926 296.733 110.077L274.863 134.863C274.73 135.014 274.5 135.029 274.349 134.895C274.198 134.762 274.183 134.532 274.317 134.381L296.187 109.595C296.32 109.444 296.55 109.429 296.701 109.563Z" fill="#E6EBFF"/>
<path fill-rule="evenodd" clip-rule="evenodd" d="M252.475 159.135C252.626 159.268 252.64 159.499 252.507 159.65L218.973 197.558C218.839 197.708 218.609 197.722 218.458 197.589C218.307 197.456 218.293 197.225 218.427 197.075L251.961 159.167C252.094 159.016 252.324 159.002 252.475 159.135Z" fill="#E6EBFF"/>
<path fill-rule="evenodd" clip-rule="evenodd" d="M306.891 146.486C307.049 146.61 307.076 146.839 306.952 146.997L272.932 190.251C272.808 190.41 272.578 190.437 272.42 190.313C272.262 190.188 272.235 189.959 272.359 189.801L306.379 146.547C306.503 146.389 306.733 146.361 306.891 146.486Z" fill="#E6EBFF"/>
<path fill-rule="evenodd" clip-rule="evenodd" d="M262.181 210.639C262.338 210.765 262.364 210.994 262.239 211.151L227.733 254.405C227.607 254.563 227.378 254.589 227.22 254.463C227.063 254.337 227.037 254.108 227.163 253.951L261.669 210.697C261.794 210.539 262.024 210.514 262.181 210.639Z" fill="#E6EBFF"/>
<path fill-rule="evenodd" clip-rule="evenodd" d="M209.707 206.763C209.858 206.896 209.872 207.126 209.739 207.277L195.159 223.801C195.026 223.952 194.795 223.967 194.644 223.833C194.493 223.7 194.479 223.47 194.612 223.319L209.192 206.795C209.325 206.644 209.556 206.63 209.707 206.763Z" fill="#E6EBFF"/>
<path fill-rule="evenodd" clip-rule="evenodd" d="M287.955 245.159C288.105 245.293 288.117 245.524 287.983 245.674L270.973 264.628C270.838 264.777 270.608 264.79 270.458 264.655C270.308 264.521 270.296 264.29 270.43 264.141L287.44 245.187C287.575 245.037 287.805 245.024 287.955 245.159Z" fill="#E6EBFF"/>
<path fill-rule="evenodd" clip-rule="evenodd" d="M302.535 202.391C302.685 202.525 302.697 202.756 302.563 202.906L285.553 221.86C285.419 222.009 285.188 222.022 285.038 221.887C284.888 221.753 284.876 221.522 285.01 221.373L302.02 202.419C302.155 202.269 302.385 202.256 302.535 202.391Z" fill="#E6EBFF"/>
<path d="M314.442 84.8071L325.62 79.2181V276.534H314.442V84.8071Z" fill="#D6DFFF"/>
<path fill-rule="evenodd" clip-rule="evenodd" d="M249.254 112.756L245.613 113.194V280.422H249.254V112.756Z" fill="#C2CEFF"/>
<path d="M314.41 179.999H170.586V182.412H314.41V179.999Z" fill="#C2CEFF"/>
<path fill-rule="evenodd" clip-rule="evenodd" d="M198.43 250.533H59.0834C55.8044 250.533 53.1514 253.188 53.1514 256.463C53.1514 278.298 53.1514 352.945 53.1514 352.945H198.43V250.533Z" fill="#A9BAFF"/>
<path fill-rule="evenodd" clip-rule="evenodd" d="M205.948 256.864C205.948 255.186 205.28 253.575 204.093 252.39C202.907 251.2 201.296 250.533 199.614 250.533C175.684 250.533 90.9333 250.533 67.0036 250.533C65.322 250.533 63.7104 251.2 62.5239 252.39C61.3375 253.575 60.6697 255.186 60.6697 256.864C60.6697 279.203 60.6697 352.945 60.6697 352.945H205.948V256.864Z" fill="#C2CEFF"/>
<path fill-rule="evenodd" clip-rule="evenodd" d="M198.43 266.845C198.43 264.823 197.63 262.885 196.202 261.456C194.77 260.028 192.836 259.225 190.813 259.225C167.752 259.225 98.8666 259.225 75.8056 259.225C73.7872 259.225 71.8484 260.028 70.4205 261.456C68.9925 262.885 68.1885 264.823 68.1885 266.845C68.1885 288.297 68.1885 347.674 68.1885 347.674H198.43V266.845Z" fill="#C2CEFF" stroke="white" stroke-width="2.63809" stroke-miterlimit="1.5" stroke-linecap="round" stroke-linejoin="round"/>
<path d="M54.9185 269.243C61.9169 273.909 63.3425 285.119 63.1805 290.141C59.8595 288.764 52.0025 284.65 47.1425 279.206C42.2825 273.763 40.2575 266.084 39.8525 262.925C41.9585 263.087 47.9201 264.578 54.9185 269.243Z" fill="#889EF8"/>
<path d="M65.698 273.618C59.869 278.283 58.6816 289.494 58.8165 294.516C61.5826 293.139 68.1267 289.024 72.1747 283.581C76.2226 278.137 77.9093 270.459 78.2466 267.3C76.4925 267.462 71.527 268.952 65.698 273.618Z" fill="#889EF8"/>
<path d="M43.458 301.785L43.895 303.667C45.2274 309.407 50.3415 313.469 56.2336 313.469H67.0681C72.8016 313.469 77.8201 309.618 79.3036 304.08L79.8078 302.198C81.9626 294.153 75.9007 286.253 67.5724 286.253H55.7966C47.644 286.253 41.6144 293.843 43.458 301.785Z" fill="#9CAFFF"/>
<path fill-rule="evenodd" clip-rule="evenodd" d="M205.95 342.061C202.101 338.144 195.336 318.884 174.234 319.209C153.132 319.535 102.534 319.209 102.534 319.209L128.322 357.516L205.95 342.061Z" fill="#9CAFFF"/>
<path fill-rule="evenodd" clip-rule="evenodd" d="M450.765 346.761C450.765 346.761 430.885 329.955 382.465 329.955H206.183C206.183 329.955 138.488 331.456 117.804 349.04C97.1199 366.623 98.2737 401.534 132.921 404.352C167.568 407.171 178.935 400.771 195.858 402.651C212.78 404.532 238.534 408.041 257.337 409.455C276.141 410.865 300.324 401.801 320.517 402.651C336.813 403.341 354.945 411.477 374.463 411.156C406.539 398.52 432.54 375.921 450.765 346.761Z" fill="#CDD7FF"/>
<path d="M240.57 329.751C187.839 333.882 100.846 365.229 123.687 371.547C146.528 377.865 305.451 381.753 331.209 377.865C339.637 376.593 348.219 369.329 358.668 361.827C387.099 341.415 421.119 334.368 421.119 334.368" stroke="#E8ECFE" stroke-width="3.80002"/>
<path fill-rule="evenodd" clip-rule="evenodd" d="M18.8125 313.328H134.771V416.016C76.0589 398.277 36.9359 363.285 18.8125 313.328Z" fill="#DBE2FF"/>
<path fill-rule="evenodd" clip-rule="evenodd" d="M127.548 329.823C127.548 327.533 125.689 325.673 123.398 325.673C111.563 325.673 77.7249 325.673 65.8895 325.673C63.5985 325.673 61.74 327.533 61.74 329.823C61.74 334.072 61.74 340.638 61.74 344.888C61.74 347.183 63.5985 349.038 65.8895 349.038C77.7249 349.038 111.563 349.038 123.398 349.038C125.689 349.038 127.548 347.183 127.548 344.888C127.548 340.638 127.548 334.072 127.548 329.823Z" fill="#B7C6FF"/>
<path fill-rule="evenodd" clip-rule="evenodd" d="M108.216 337.355C108.216 336.324 107.38 335.49 106.35 335.49C101.621 335.49 89.1938 335.49 84.465 335.49C83.4347 335.49 82.5989 336.324 82.5989 337.355C82.5989 338.386 83.4347 339.22 84.465 339.22C89.1938 339.22 101.621 339.22 106.35 339.22C107.38 339.22 108.216 338.386 108.216 337.355Z" fill="white"/>
<path fill-rule="evenodd" clip-rule="evenodd" d="M127.547 367.151C127.547 366.474 127.277 365.822 126.797 365.343C126.317 364.865 125.67 364.597 124.99 364.597C114.505 364.597 74.7825 364.597 64.2922 364.597C63.6125 364.597 62.966 364.865 62.4859 365.343C62.0058 365.822 61.7397 366.474 61.7397 367.151C61.7397 369.17 61.7217 376.893 61.7217 376.893C68.2827 382.482 69.7407 383.454 75.7284 387.961H124.99C126.402 387.961 127.547 386.818 127.547 385.407C127.547 380.917 127.547 371.642 127.547 367.151Z" fill="#B7C6FF"/>
<path fill-rule="evenodd" clip-rule="evenodd" d="M18.8047 313.328H53.1519V368.737C41.5527 357.453 28.1877 338.985 18.8047 313.328Z" fill="#A9BAFF"/>
<path d="M424.278 122.958H356.724V210.924H424.278V122.958Z" fill="#D6DFFF"/>
<path d="M424.278 122.92H361.12V211.261H424.278V122.92Z" fill="#C2CEFF"/>
<path d="M420.876 126.36H364.5V208.008H420.876V126.36Z" fill="#F4F6FF"/>
<path fill-rule="evenodd" clip-rule="evenodd" d="M375.074 147.258C375.074 147.258 393.005 150.767 400.234 163.587C405.329 172.616 403.848 182.962 398.566 185.708C393.283 188.454 385.86 187.515 380.495 179.758C374.796 171.52 374.096 157.484 375.074 147.258Z" fill="#C2CEFF"/>
<path fill-rule="evenodd" clip-rule="evenodd" d="M412.719 147.258C412.719 147.258 394.18 150.767 386.707 163.587C381.438 172.616 382.97 182.962 388.431 185.708C393.892 188.454 401.568 187.515 407.114 179.758C413.007 171.52 413.73 157.484 412.719 147.258Z" fill="#C2CEFF"/>
<path d="M94.2178 202.477C113.333 202.477 128.83 187.019 128.83 167.951C128.83 148.883 113.333 133.426 94.2178 133.426C75.1022 133.426 59.606 148.883 59.606 167.951C59.606 187.019 75.1022 202.477 94.2178 202.477Z" fill="#C2CEFF"/>
<path d="M94.2187 196.657C110.114 196.657 123 183.804 123 167.948C123 152.093 110.114 139.239 94.2187 139.239C78.3233 139.239 65.4375 152.093 65.4375 167.948C65.4375 183.804 78.3233 196.657 94.2187 196.657Z" fill="#F1F4FF"/>
<path fill-rule="evenodd" clip-rule="evenodd" d="M107.139 152.755C107.792 153.281 107.895 154.236 107.369 154.889L95.4018 169.749C95.1263 170.091 94.7162 170.297 94.2773 170.313C93.8384 170.33 93.4138 170.156 93.113 169.836L85.7261 161.972C85.152 161.361 85.1821 160.4 85.7932 159.826C86.4042 159.252 87.365 159.282 87.939 159.893L94.1315 166.485L105.005 152.985C105.531 152.332 106.486 152.229 107.139 152.755Z" fill="#C2CEFF"/>
<path fill-rule="evenodd" clip-rule="evenodd" d="M249.466 112.756L245.836 113.199V282.729H249.466V112.756Z" fill="#C2CEFF"/>
<path fill-rule="evenodd" clip-rule="evenodd" d="M108.216 376.278C108.216 375.248 107.38 374.414 106.35 374.414C101.621 374.414 89.1938 374.414 84.465 374.414C83.4347 374.414 82.5989 375.248 82.5989 376.278C82.5989 377.309 83.4347 378.143 84.465 378.143C89.1938 378.143 101.621 378.143 106.35 378.143C107.38 378.143 108.216 377.309 108.216 376.278Z" fill="white"/>
<mask id="mask0_0_1" style="mask-type:alpha" maskUnits="userSpaceOnUse" x="81" y="113" width="310" height="321">
<path d="M314.789 114.185C337.193 114.048 355.589 113.935 388.048 113.737L388.049 113.796L388.053 114.485L388.057 115.173L388.061 115.858L388.065 116.54L388.07 117.22L388.074 117.898L388.078 118.573L388.082 119.246L388.086 119.917L388.09 120.585L388.094 121.251L388.098 121.914L388.102 122.575L388.106 123.234L388.11 123.89L388.114 124.544L388.118 125.196L388.122 125.846L388.126 126.493L388.13 127.138L388.134 127.78L388.138 128.42L388.142 129.058L388.146 129.694L388.15 130.327L388.154 130.959L388.157 131.588L388.161 132.214L388.165 132.839L388.169 133.461L388.173 134.081L388.176 134.698L388.18 135.314L388.184 135.927L388.188 136.538L388.191 137.147L388.195 137.754L388.199 138.358L388.203 138.961L388.206 139.561L388.21 140.159L388.214 140.755L388.217 141.348L388.221 141.94L388.224 142.529L388.228 143.117L388.232 143.702L388.235 144.285L388.239 144.866L388.242 145.445L388.246 146.022L388.249 146.596L388.253 147.169L388.256 147.739L388.26 148.308L388.263 148.874L388.267 149.438L388.27 150.001L388.273 150.561L388.277 151.119L388.28 151.675L388.284 152.229L388.287 152.782L388.29 153.332L388.294 153.88L388.297 154.426L388.3 154.97L388.304 155.512L388.307 156.052L388.31 156.591L388.314 157.127L388.317 157.661L388.32 158.194L388.323 158.724L388.327 159.252L388.33 159.779L388.333 160.304L388.336 160.826L388.339 161.347L388.343 161.866L388.346 162.383L388.349 162.898L388.352 163.411L388.355 163.923L388.358 164.432L388.361 164.94L388.365 165.446L388.368 165.95L388.371 166.452L388.374 166.952L388.377 167.45L388.38 167.947L388.383 168.442L388.386 168.935L388.389 169.426L388.392 169.915L388.395 170.403L388.398 170.889L388.401 171.373L388.404 171.855L388.407 172.336L388.41 172.814L388.413 173.292L388.415 173.767L388.418 174.24L388.421 174.712L388.424 175.182L388.427 175.651L388.43 176.117L388.433 176.582L388.436 177.046L388.438 177.507L388.441 177.967L388.444 178.425L388.447 178.882L388.45 179.337L388.452 179.79L388.455 180.242L388.458 180.692L388.461 181.14L388.463 181.587L388.466 182.032L388.469 182.476L388.471 182.918L388.474 183.358L388.477 183.797L388.479 184.234L388.482 184.669L388.485 185.103L388.487 185.536L388.49 185.966L388.493 186.396L388.495 186.823L388.498 187.25L388.501 187.674L388.503 188.097L388.506 188.519L388.508 188.939L388.511 189.358L388.513 189.775L388.516 190.191L388.518 190.605L388.521 191.017L388.524 191.429L388.526 191.838L388.529 192.247L388.531 192.653L388.533 193.059L388.536 193.463L388.538 193.865L388.541 194.266L388.543 194.666L388.546 195.064L388.548 195.461L388.551 195.856L388.553 196.251L388.555 196.643L388.558 197.034L388.56 197.424L388.563 197.813L388.565 198.2L388.567 198.586L388.57 198.971L388.572 199.354L388.574 199.736L388.577 200.116L388.579 200.495L388.581 200.873L388.584 201.25L388.586 201.625L388.588 201.999L388.59 202.372L388.593 202.743L388.595 203.113L388.597 203.482L388.6 203.85L388.602 204.216L388.604 204.581L388.606 204.945L388.608 205.308L388.611 205.669L388.613 206.03L388.615 206.389L388.617 206.746L388.619 207.103L388.622 207.459L388.624 207.813L388.626 208.166L388.628 208.518L388.63 208.869L388.632 209.218L388.634 209.567L388.637 209.914L388.639 210.26L388.641 210.605L388.643 210.949L388.645 211.292L388.647 211.633L388.649 211.974L388.651 212.314L388.653 212.652L388.655 212.989L388.657 213.325L388.66 213.661L388.662 213.995L388.664 214.328L388.666 214.66L388.668 214.991L388.67 215.321L388.672 215.65L388.674 215.977L388.676 216.304L388.678 216.63L388.68 216.955L388.682 217.279L388.684 217.602L388.686 217.924L388.688 218.245L388.69 218.564L388.691 218.883L388.693 219.201L388.695 219.519L388.697 219.835L388.699 220.15L388.701 220.464L388.703 220.777L388.705 221.09L388.707 221.401L388.709 221.712L388.711 222.022L388.713 222.331L388.714 222.639L388.716 222.946L388.718 223.252L388.72 223.557L388.722 223.862L388.724 224.165L388.726 224.468L388.727 224.77L388.729 225.071L388.731 225.372L388.733 225.671L388.735 225.97L388.737 226.268L388.738 226.565L388.74 226.861L388.742 227.157L388.744 227.452L388.746 227.746L388.747 228.039L388.749 228.331L388.751 228.623L388.753 228.914L388.755 229.204L388.756 229.494L388.758 229.783L388.76 230.071L388.762 230.358L388.763 230.645L388.765 230.931L388.767 231.216L388.769 231.501L388.77 231.785L388.772 232.068L388.774 232.351L388.776 232.633L388.777 232.914L388.779 233.195L388.781 233.475L388.782 233.754L388.784 234.033L388.786 234.311L388.788 234.589L388.789 234.866L388.791 235.142L388.793 235.418L388.794 235.693L388.796 235.968L388.798 236.242L388.799 236.516L388.801 236.789L388.803 237.061L388.804 237.333L388.806 237.604L388.808 237.875L388.809 238.146L388.811 238.415L388.813 238.685L388.814 238.954L388.816 239.222L388.818 239.49L388.819 239.757L388.821 240.024L388.822 240.29L388.824 240.556L388.826 240.822L388.827 241.087L388.829 241.352L388.831 241.616L388.832 241.88L388.834 242.143L388.835 242.406L388.837 242.668L388.839 242.93L388.84 243.192L388.842 243.454L388.843 243.715L388.845 243.975L388.847 244.235L388.848 244.495L388.85 244.755L388.851 245.014L388.853 245.273L388.855 245.531L388.856 245.79L388.858 246.048L388.859 246.305L388.861 246.562L388.862 246.819L388.864 247.076L388.866 247.332L388.867 247.589L388.869 247.844L388.87 248.1L388.872 248.355L388.873 248.61L388.875 248.865L388.876 249.12L388.878 249.374L388.88 249.628L388.881 249.882L388.883 250.136L388.884 250.389L388.886 250.643L388.887 250.896L388.889 251.149L388.89 251.402L388.892 251.654L388.894 251.907L388.895 252.159L388.897 252.411L388.898 252.663L388.9 252.915L388.901 253.167L388.903 253.418L388.904 253.67L388.906 253.921L388.907 254.172L388.909 254.423L388.91 254.674L388.912 254.925L388.914 255.176L388.915 255.427L388.917 255.678L388.918 255.929L388.92 256.179L388.921 256.43L388.923 256.681L388.924 256.931L388.926 257.182L388.927 257.432L388.929 257.683L388.93 257.933L388.932 258.184L388.933 258.434L388.935 258.685L388.937 258.935L388.938 259.186L388.94 259.437L388.941 259.687L388.943 259.938L388.944 260.189L388.946 260.44L388.947 260.691L388.949 260.942L388.95 261.193L388.952 261.444L388.953 261.695L388.955 261.947L388.956 262.198L388.958 262.45L388.96 262.702L388.961 262.954L388.963 263.206L388.964 263.458L388.966 263.71L388.967 263.962L388.969 264.215L388.97 264.468L388.972 264.721L388.973 264.974L388.975 265.227L388.977 265.481L388.978 265.735L388.98 265.989L388.981 266.243L388.983 266.497L388.984 266.752L388.986 267.007L388.987 267.262L388.989 267.518L388.991 267.773L388.992 268.029L388.994 268.285L388.995 268.542L388.997 268.799L388.998 269.056L389 269.313L389.002 269.571L389.003 269.829L389.005 270.087L389.006 270.346L389.008 270.604L389.009 270.864L389.011 271.123L389.013 271.383L389.014 271.644L389.016 271.904L389.017 272.166L389.019 272.427L389.021 272.689L389.022 272.951L389.024 273.214L389.025 273.477L389.027 273.74L389.029 274.004L389.03 274.269L389.032 274.533L389.034 274.799L389.035 275.064L389.037 275.33L389.038 275.597L389.04 275.864L389.042 276.131L389.043 276.399L389.045 276.668L389.047 276.937L389.048 277.206L389.05 277.476L389.052 277.747L389.053 278.018L389.055 278.289L389.057 278.561L389.058 278.834L389.06 279.107L389.062 279.381L389.063 279.655L389.065 279.93L389.067 280.205L389.068 280.481L389.07 280.758L389.072 281.035L389.073 281.313L389.075 281.591L389.077 281.87L389.079 282.15L389.08 282.43L389.082 282.711L389.084 282.992L389.085 283.275L389.087 283.557L389.089 283.841L389.091 284.125L389.092 284.41L389.094 284.695L389.096 284.982L389.098 285.269L389.099 285.556L389.101 285.844L389.103 286.134L389.105 286.423L389.106 286.714L389.108 287.005L389.11 287.297L389.112 287.59L389.114 287.883L389.115 288.177L389.117 288.472L389.119 288.768L389.121 289.065L389.123 289.362L389.124 289.66L389.126 289.959L389.128 290.259L389.13 290.559L389.132 290.861L389.134 291.163L389.136 291.466L389.137 291.77L389.139 292.075L389.141 292.38L389.143 292.687L389.145 292.994L389.147 293.302L389.149 293.611L389.151 293.921L389.152 294.232L389.154 294.544L389.156 294.857L389.158 295.17L389.16 295.485L389.162 295.8L389.164 296.117L389.166 296.434L389.168 296.752L389.17 297.072L389.172 297.392L389.174 297.713L389.176 298.035L389.178 298.358L389.18 298.682L389.182 299.007L389.184 299.33L389.186 299.652L389.188 299.973L389.19 300.293L389.191 300.612L389.193 300.93L389.195 301.247L389.197 301.563L389.199 301.878L389.201 302.192L389.203 302.505L389.205 302.817L389.207 303.128L389.209 303.438L389.211 303.747L389.213 304.055L389.214 304.362L389.216 304.668L389.218 304.973L389.22 305.277L389.222 305.58L389.224 305.882L389.226 306.184L389.227 306.484L389.229 306.783L389.231 307.082L389.233 307.379L389.235 307.676L389.236 307.971L389.238 308.266L389.24 308.56L389.242 308.852L389.244 309.144L389.245 309.435L389.247 309.725L389.249 310.014L389.251 310.303L389.253 310.59L389.254 310.876L389.256 311.162L389.258 311.446L389.259 311.73L389.261 312.013L389.263 312.295L389.265 312.576L389.266 312.856L389.268 313.135L389.27 313.414L389.271 313.691L389.273 313.968L389.275 314.244L389.277 314.519L389.278 314.793L389.28 315.066L389.282 315.339L389.283 315.61L389.285 315.881L389.287 316.151L389.288 316.42L389.29 316.688L389.291 316.955L389.293 317.222L389.295 317.488L389.296 317.753L389.298 318.017L389.3 318.28L389.301 318.542L389.303 318.804L389.304 319.065L389.306 319.325L389.308 319.584L389.309 319.843L389.311 320.1L389.312 320.357L389.314 320.613L389.315 320.869L389.317 321.123L389.319 321.377L389.32 321.63L389.322 321.882L389.323 322.134L389.325 322.384L389.326 322.634L389.328 322.884L389.329 323.132L389.331 323.38L389.332 323.627L389.334 323.873L389.335 324.119L389.337 324.363L389.338 324.607L389.34 324.851L389.341 325.093L389.343 325.335L389.344 325.576L389.346 325.817L389.347 326.056L389.349 326.295L389.35 326.534L389.352 326.771L389.353 327.008L389.354 327.245L389.356 327.48L389.357 327.715L389.359 327.949L389.36 328.183L389.362 328.415L389.363 328.648L389.364 328.879L389.366 329.11L389.367 329.34L389.369 329.57L389.37 329.798L389.371 330.027L389.373 330.254L389.374 330.481L389.376 330.707L389.377 330.933L389.378 331.158L389.38 331.382L389.381 331.606L389.382 331.829L389.384 332.052L389.385 332.273L389.387 332.495L389.388 332.715L389.389 332.935L389.391 333.155L389.392 333.373L389.393 333.592L389.395 333.809L389.396 334.026L389.397 334.243L389.399 334.459L389.4 334.674L389.401 334.889L389.402 335.103L389.404 335.316L389.405 335.529L389.406 335.742L389.408 335.953L389.409 336.165L389.41 336.375L389.412 336.586L389.413 336.795L389.414 337.004L389.415 337.213L389.417 337.421L389.418 337.628L389.419 337.835L389.42 338.042L389.422 338.248L389.423 338.453L389.424 338.658L389.425 338.862L389.427 339.066L389.428 339.269L389.429 339.472L389.43 339.674L389.432 339.876L389.433 340.078L389.434 340.278L389.435 340.479L389.437 340.679L389.438 340.878L389.439 341.077L389.44 341.275L389.441 341.473L389.443 341.671L389.444 341.868L389.445 342.064L389.446 342.26L389.447 342.456L389.449 342.651L389.45 342.846L389.451 343.04L389.452 343.234L389.453 343.428L389.455 343.621L389.456 343.813L389.457 344.005L389.458 344.197L389.459 344.388L389.46 344.579L389.462 344.77L389.463 344.96L389.464 345.149L389.465 345.338L389.466 345.527L389.467 345.716L389.469 345.904L389.47 346.091L389.471 346.279L389.472 346.466L389.473 346.652L389.474 346.838L389.475 347.024L389.477 347.209L389.478 347.394L389.479 347.579L389.48 347.763L389.481 347.947L389.482 348.131L389.483 348.314L389.484 348.497L389.486 348.679L389.487 348.861L389.488 349.043L389.489 349.225L389.49 349.406L389.491 349.587L389.492 349.767L389.493 349.948L389.494 350.128L389.496 350.307L389.497 350.486L389.498 350.665L389.499 350.844L389.5 351.022L389.501 351.2L389.502 351.378L389.503 351.556L389.504 351.733L389.505 351.91L389.506 352.086L389.507 352.263L389.509 352.439L389.51 352.615L389.511 352.79L389.512 352.965L389.513 353.14L389.514 353.315L389.515 353.49L389.516 353.664L389.517 353.838L389.518 354.012L389.519 354.185L389.52 354.359L389.521 354.532L389.522 354.705L389.523 354.877L389.525 355.049L389.526 355.222L389.527 355.394L389.528 355.565L389.529 355.737L389.53 355.908L389.531 356.079L389.532 356.25L389.533 356.421L389.534 356.591L389.535 356.762L389.536 356.932L389.537 357.102L389.538 357.272L389.539 357.441L389.54 357.611L389.541 357.78L389.542 357.949L389.543 358.118L389.544 358.287L389.545 358.455L389.546 358.624L389.547 358.792L389.548 358.96L389.549 359.128L389.55 359.296L389.552 359.464L389.553 359.632L389.554 359.799L389.555 359.966L389.556 360.134L389.557 360.301L389.558 360.468L389.559 360.635L389.56 360.801L389.561 360.968L389.562 361.135L389.563 361.301L389.564 361.468L389.565 361.634L389.566 361.8L389.567 361.966L389.568 362.132L389.569 362.298L389.57 362.464L389.571 362.63L389.572 362.796L389.573 362.961L389.574 363.127L389.575 363.292L389.576 363.458L389.577 363.623L389.578 363.789L389.579 363.954L389.58 364.119L389.581 364.285L389.582 364.45L389.583 364.615L389.584 364.78L389.585 364.945L389.586 365.11L389.587 365.276L389.588 365.441L389.589 365.606L389.59 365.771L389.591 365.936L389.592 366.101L389.593 366.266L389.594 366.431L389.595 366.596L389.596 366.761L389.597 366.926L389.598 367.091L389.599 367.257L389.6 367.422L389.601 367.587L389.602 367.752L389.603 367.917L389.604 368.083L389.605 368.248L389.606 368.413L389.607 368.579L389.608 368.744L389.609 368.91L389.61 369.075L389.611 369.241L389.612 369.407L389.613 369.573L389.614 369.738L389.615 369.904L389.616 370.07L389.617 370.236L389.618 370.403L389.619 370.569L389.62 370.735L389.621 370.902L389.623 371.068L389.624 371.235L389.625 371.402L389.626 371.569L389.627 371.736L389.628 371.903L389.629 372.07L389.63 372.237L389.631 372.405L389.632 372.572L389.633 372.74L389.634 372.908L389.635 373.076L389.636 373.244L389.637 373.412L389.638 373.581L389.639 373.749L389.64 373.918L389.641 374.087L389.642 374.256L389.643 374.425L389.644 374.595L389.645 374.764L389.646 374.934L389.647 375.104L389.648 375.274L389.649 375.444L389.65 375.615L389.651 375.785L389.652 375.956L389.653 376.127L389.655 376.299L389.656 376.47L389.657 376.642L389.658 376.814L389.659 376.986L389.66 377.158L389.661 377.331L389.662 377.503L389.663 377.676L389.664 377.85L389.665 378.023L389.666 378.197L389.667 378.371L389.668 378.545L389.669 378.719L389.67 378.894L389.671 379.069L389.673 379.244L389.674 379.42L389.675 379.596L389.676 379.772L389.677 379.948L389.678 380.124L389.679 380.301L389.68 380.478L389.681 380.656L389.682 380.834L389.683 381.012L389.684 381.19L389.686 381.368L389.687 381.547L389.688 381.727L389.689 381.906L389.69 382.086L389.691 382.266L389.692 382.446L389.693 382.627L389.694 382.808L389.695 382.99L389.697 383.172L389.698 383.354L389.699 383.536L389.7 383.719L389.701 383.902L389.702 384.086L389.703 384.269L389.704 384.454L389.706 384.638L389.707 384.823L389.708 385.008L389.709 385.194L389.71 385.38L389.711 385.566L389.712 385.753L389.713 385.94L389.715 386.128L389.716 386.316L389.717 386.504L389.718 386.693L389.719 386.882L389.72 387.072L389.722 387.262L389.723 387.452L389.724 387.643L389.725 387.834L389.726 388.026L389.727 388.218L389.729 388.41L389.73 388.603L389.731 388.796L389.732 388.99L389.733 389.184L389.735 389.379L389.736 389.574L389.737 389.77L389.738 389.966L389.739 390.162L389.741 390.359L389.742 390.556L389.743 390.754L389.744 390.952L389.745 391.151L389.747 391.35L389.748 391.55L389.749 391.75L389.75 391.951L389.752 392.152L389.753 392.354L389.754 392.556L389.755 392.759L389.756 392.962L389.758 393.166L389.759 393.37L389.76 393.575L389.761 393.78L389.763 393.986L389.764 394.192L389.765 394.399L389.767 394.606L389.768 394.814L389.769 395.023L389.77 395.232L389.772 395.441L389.773 395.651L389.774 395.862L389.775 396.073L389.777 396.285L389.778 396.497L389.779 396.71L389.781 396.923L389.782 397.137L389.783 397.352L389.785 397.567L389.786 397.783L389.787 397.999L389.789 398.216L389.79 398.433L389.791 398.651L389.793 398.87L389.794 399.089L389.795 399.309L389.797 399.53L389.798 399.751L389.799 399.973L389.801 400.195L389.802 400.418L389.803 400.641L389.805 400.866L389.806 401.09L389.808 401.316L389.809 401.542L389.81 401.769L389.812 401.996L389.813 402.224L389.815 402.453L389.816 402.682L389.817 402.912L389.819 403.143L389.82 403.374L389.822 403.606L389.823 403.839L389.823 403.873L366.607 413.071L366.599 413.073L366.587 413.078L366.573 413.084C331.301 428.043 283.028 433.922 230.135 432.894C183.187 431.981 120.072 421.606 83.5218 401.314L82.9515 308.087L82.6832 264.221C82.4464 225.52 82.1254 173.065 81.7741 115.611C106.917 115.457 124.316 115.35 138.631 115.263C164.848 115.102 180.72 115.005 214.878 114.796C265.034 114.489 291.988 114.324 314.789 114.185Z" fill="#F4F6FF" stroke="black" stroke-width="1.26667"/>
</mask>
<g mask="url(#mask0_0_1)">
<path fill-rule="evenodd" clip-rule="evenodd" d="M307.341 304.896C294.751 289.573 264.638 273.273 234.039 272.369C197.006 271.275 160.523 289.424 150.404 308.798C137.023 334.415 135.897 391.293 136.295 419.838C136.334 422.672 136.82 433.921 136.82 433.921H319.397C319.397 433.921 319.938 422.322 320.01 420.192C321.06 390.258 321.844 322.549 307.341 304.896Z" fill="#FFB8C0"/>
<path fill-rule="evenodd" clip-rule="evenodd" d="M307.336 301.277C294.747 285.954 264.717 268.92 234.119 268.016C219.05 267.571 166.654 270.387 148.092 311.461C137.194 335.576 136.82 374.913 136.82 374.913L174.728 374.63V433.921H281.226L281.497 375.284L320.515 375.049C320.515 375.049 320.431 372.587 320.515 368.548C320.805 353.859 319.986 316.674 307.336 301.277Z" fill="#688BFF"/>
<path d="M231.025 341.751C232.317 341.751 233.365 340.667 233.365 339.328C233.365 337.99 232.317 336.905 231.025 336.905C229.733 336.905 228.685 337.99 228.685 339.328C228.685 340.667 229.733 341.751 231.025 341.751Z" fill="#9EB4FF"/>
<path d="M229.373 368.599C230.665 368.599 231.712 367.514 231.712 366.176C231.712 364.837 230.665 363.753 229.373 363.753C228.08 363.753 227.033 364.837 227.033 366.176C227.033 367.514 228.08 368.599 229.373 368.599Z" fill="#9EB4FF"/>
<path d="M229.373 395.451C230.665 395.451 231.712 394.366 231.712 393.028C231.712 391.69 230.665 390.605 229.373 390.605C228.08 390.605 227.033 391.69 227.033 393.028C227.033 394.366 228.08 395.451 229.373 395.451Z" fill="#9EB4FF"/>
<path d="M229.373 422.299C230.665 422.299 231.712 421.214 231.712 419.875C231.712 418.537 230.665 417.452 229.373 417.452C228.08 417.452 227.033 418.537 227.033 419.875C227.033 421.214 228.08 422.299 229.373 422.299Z" fill="#9EB4FF"/>
<path fill-rule="evenodd" clip-rule="evenodd" d="M174.729 433.921V370.36C175.15 355.788 176.743 339.06 182.042 328.159C182.542 340.23 182.931 370.36 182.931 370.36L182.575 433.921H174.729Z" fill="#4A74FF"/>
<path fill-rule="evenodd" clip-rule="evenodd" d="M291.612 433.921H281.25L281.232 375.079L291.691 375.049C291.691 388.843 291.59 434.196 291.612 433.921Z" fill="#FF8C99"/>
<path fill-rule="evenodd" clip-rule="evenodd" d="M291.691 375.049L281.232 375.079L281.228 353.557C283.208 350.109 286.088 346.464 287.478 341.749C287.478 341.749 287.766 342.976 287.902 343.604C290.646 356.338 291.691 371.281 291.691 375.049Z" fill="#4A74FF"/>
<path d="M279.721 305.547C279.721 305.547 288.879 316.054 288.879 330.292C288.879 344.531 282.091 353.614 282.091 353.614" stroke="#4A74FF" stroke-width="6.34657" stroke-miterlimit="1.5" stroke-linecap="round" stroke-linejoin="round"/>
<path fill-rule="evenodd" clip-rule="evenodd" d="M210.733 269.641L235.911 323.63L208.537 293.697L215.547 285.021L203.775 285.29L205.304 270.67L210.733 269.641Z" fill="#9EB4FF"/>
<path fill-rule="evenodd" clip-rule="evenodd" d="M246.717 269.159L231.501 318.4L247.905 293.215L243.707 285.554L252.667 284.808L250.201 269.846L246.717 269.159Z" fill="#9EB4FF"/>
<path fill-rule="evenodd" clip-rule="evenodd" d="M210.733 269.637L232.383 316.573L246.772 269.159C246.772 269.159 235.228 267.302 227.362 267.589C219.99 267.863 210.733 269.637 210.733 269.637Z" fill="#FFB8C0"/>
<path fill-rule="evenodd" clip-rule="evenodd" d="M240.016 282.645H234.169C233.902 282.645 233.661 282.809 233.555 283.059L232.425 285.763C232.277 286.112 232.435 286.516 232.775 286.664C233.116 286.812 233.507 286.651 233.655 286.303L234.612 284.016H240.016C240.386 284.016 240.684 283.707 240.684 283.329C240.684 282.951 240.386 282.645 240.016 282.645Z" fill="#FF9CA0"/>
<path fill-rule="evenodd" clip-rule="evenodd" d="M218.96 282.645H224.807C225.074 282.645 225.315 282.809 225.421 283.059L226.551 285.763C226.699 286.112 226.542 286.516 226.201 286.664C225.861 286.812 225.469 286.651 225.321 286.303L224.364 284.016H218.96C218.591 284.016 218.292 283.707 218.292 283.329C218.292 282.951 218.591 282.645 218.96 282.645Z" fill="#FF9CA0"/>
<path fill-rule="evenodd" clip-rule="evenodd" d="M238.728 258.722L220.188 253.722L220.119 272.436C220.119 272.436 220.429 276.781 230.289 276.631C241.195 276.463 240.554 272.295 240.554 272.295L238.728 258.722Z" fill="#FFB8C0"/>
<path fill-rule="evenodd" clip-rule="evenodd" d="M238.724 258.722L229.579 256.494C230.379 261.889 234.629 269.851 240.597 272.388L238.724 258.722Z" fill="#FF9CA0"/>
<path fill-rule="evenodd" clip-rule="evenodd" d="M215.94 227.296C215.94 227.296 232.82 228.482 241.813 228.284C250.608 228.085 254.988 224.702 254.988 224.702C254.988 224.702 251.587 209.305 236.406 209.305C214.432 209.305 215.94 227.296 215.94 227.296Z" fill="#FFB8C0"/>
<path fill-rule="evenodd" clip-rule="evenodd" d="M261.555 224.71C261.144 230.026 266.076 270.843 266.076 270.843C266.076 270.843 249.681 271.589 240.542 270.843L238.778 259.676L220.571 254.82V270.863L198.421 270.917C205.408 243.653 195.131 202.57 223.813 206.982C223.813 206.982 233.874 202.088 241.204 203.651C262.221 208.131 261.555 224.71 261.555 224.71Z" fill="#382149"/>
<path fill-rule="evenodd" clip-rule="evenodd" d="M220.624 240.636L220.571 254.822C226.676 256.887 232.943 258.667 239.563 259.822C239.563 259.822 256.535 263.344 256.932 248.063C257.342 232.346 254.987 224.71 254.987 224.71C251.631 225.566 247.004 222.745 243.043 223.135C236.33 223.797 229.789 227.117 221.934 225.479C209.699 222.927 209.284 240.322 220.624 240.636Z" fill="#FFB8C0"/>
<path d="M220.492 228.365C220.492 228.365 215.473 228.053 215.389 232.938" stroke="#310234" stroke-width="6.35856" stroke-miterlimit="1.5" stroke-linecap="round" stroke-linejoin="round"/>
<path fill-rule="evenodd" clip-rule="evenodd" d="M223.649 224.71L222.352 237.161C224.791 237.205 226.78 234.559 227.521 230.801C237.136 231.652 242.134 229.107 243.391 223.1L223.649 224.71Z" fill="#382149"/>
<path fill-rule="evenodd" clip-rule="evenodd" d="M243.042 221.473C243.042 221.473 243.594 228.199 249.319 228.922C255.043 229.645 257.849 229.469 257.849 229.469L255.63 221.847L243.042 221.473Z" fill="#382149"/>
<path fill-rule="evenodd" clip-rule="evenodd" d="M220.238 233.313C221.274 219.08 225.542 210.109 236.462 203.344C232.105 200.892 228.496 201.362 225.003 203.344C216.341 210.766 212.567 218.52 211.602 231.773L220.238 233.313Z" fill="#E83230"/>
<path d="M215.956 242.019C221.598 242.019 226.171 237.445 226.171 231.804C226.171 226.161 221.598 221.588 215.956 221.588C210.314 221.588 205.74 226.161 205.74 231.804C205.74 237.445 210.314 242.019 215.956 242.019Z" fill="#E83230"/>
<path d="M212.706 240.118C217.3 240.118 221.026 236.393 221.026 231.798C221.026 227.203 217.3 223.478 212.706 223.478C208.111 223.478 204.386 227.203 204.386 231.798C204.386 236.393 208.111 240.118 212.706 240.118Z" fill="#C51816"/>
<path d="M212.704 236.09C215.074 236.09 216.995 234.169 216.995 231.799C216.995 229.429 215.074 227.508 212.704 227.508C210.334 227.508 208.413 229.429 208.413 231.799C208.413 234.169 210.334 236.09 212.704 236.09Z" fill="#E83230"/>
<path fill-rule="evenodd" clip-rule="evenodd" d="M246.546 235.7L250.392 244.535L246.665 245.016L246.546 235.7Z" fill="#FF5F71"/>
<path d="M237.733 237.614C237.733 237.614 240.657 235.933 242.554 237.331" stroke="#310234" stroke-width="4.5745" stroke-miterlimit="1.5" stroke-linecap="round" stroke-linejoin="round"/>
<path d="M250.058 236.282C250.058 236.282 252.732 234.227 254.798 235.359" stroke="#310234" stroke-width="4.5745" stroke-miterlimit="1.5" stroke-linecap="round" stroke-linejoin="round"/>
<path fill-rule="evenodd" clip-rule="evenodd" d="M249.241 248.49C249.185 247.998 248.93 247.548 248.536 247.247C248.142 246.946 247.642 246.818 247.151 246.893L247.021 246.913C246.052 247.061 245.373 247.949 245.484 248.923C245.562 249.605 245.651 250.39 245.73 251.086C245.786 251.579 246.041 252.028 246.435 252.329C246.829 252.631 247.329 252.758 247.819 252.683L247.95 252.663C248.919 252.515 249.598 251.628 249.487 250.653C249.409 249.971 249.32 249.186 249.241 248.49Z" fill="white"/>
</g>
</svg>


