<svg width="565" height="921" viewBox="0 0 565 921" fill="none" xmlns="http://www.w3.org/2000/svg">
<ellipse cx="-26" cy="433" rx="479" ry="433" fill="#B6C4FF"/>
<path fill-rule="evenodd" clip-rule="evenodd" d="M492.11 465.953C443.617 412.876 327.616 363.918 209.755 360.786C67.1086 356.997 -71.1707 412.356 -110.151 479.465C-181.338 602.019 -162.479 920.372 -162.479 920.372H538.557C538.557 920.372 563.769 544.384 492.11 465.953Z" fill="#002EFF" fill-opacity="0.25"/>
<path fill-rule="evenodd" clip-rule="evenodd" d="M208.313 323.811L142.308 306.671L142.062 370.824C142.062 370.824 143.165 385.723 178.273 385.209C217.103 384.64 214.805 370.349 214.805 370.349L208.313 323.811Z" fill="#FFB8C0" fill-opacity="0.8"/>
<path fill-rule="evenodd" clip-rule="evenodd" d="M208.301 323.813L175.748 316.174C178.588 334.668 193.721 361.967 214.959 370.663L208.301 323.813Z" fill="#FF9CA0" fill-opacity="0.8"/>
<path d="M523.141 884.793H415.587" stroke="#626262" stroke-opacity="0.5" stroke-width="15.1771" stroke-miterlimit="1.5" stroke-linejoin="round"/>
<path fill-rule="evenodd" clip-rule="evenodd" d="M433.532 920.371H409.238C409.207 918.397 409.177 723.42 409.146 721.44C408.104 667.173 403.061 611.151 395.52 554.032C423.232 590.819 432.06 700.43 432.06 721.017C432.06 721.017 433.455 919.404 433.532 920.371Z" fill="#626262" fill-opacity="0.5"/>
<path fill-rule="evenodd" clip-rule="evenodd" d="M-14.5054 920.373V700.21C-12.9389 649.732 -7.03174 591.785 12.5935 554.034C14.4466 595.84 15.8889 700.21 15.8889 700.21L14.5738 920.373H-14.5054Z" fill="#626262" fill-opacity="0.5"/>
<path fill-rule="evenodd" clip-rule="evenodd" d="M144.714 336.534C144.714 336.534 125.075 337.956 124.521 354.12C123.966 370.269 124.798 376.923 124.798 376.923C124.798 376.923 135.06 392.134 179.437 391.182C223.815 390.229 232.69 374.307 232.69 374.307V347.89C232.655 341.706 222.47 335.446 214.009 336.58C186.906 345.834 170.04 345.032 144.714 336.534Z" fill="#2D57FF" fill-opacity="0.5"/>
<g clip-path="url(#clip0_0_1)">
<path fill-rule="evenodd" clip-rule="evenodd" d="M142.881 309.713C142.881 309.713 132.413 303.091 130.533 280.309C128.179 251.81 130.817 235.208 122.877 221.207C115.065 207.43 151.27 212.963 151.27 212.963L142.881 309.713Z" fill="#382149" fill-opacity="0.8"/>
<path fill-rule="evenodd" clip-rule="evenodd" d="M142.943 261.043L142.757 309.678C163.969 316.756 185.745 322.858 208.762 326.819C208.762 326.819 267.728 338.891 269.113 286.506C270.537 232.621 262.351 206.442 262.351 206.442C225.807 215.772 189.979 213.621 147.486 209.079C104.313 204.464 103.539 259.966 142.943 261.043Z" fill="#FFB8C0" fill-opacity="0.7"/>
<path d="M130.412 224.427C130.143 229.021 131.945 236.524 138.076 237.28" stroke="#FF6D7E" stroke-opacity="0.5" stroke-width="10.9187" stroke-linecap="round"/>
<path d="M139.716 222.172C139.716 222.172 123.514 219.134 125.048 238.035" stroke="#FF6D7E" stroke-opacity="0.5" stroke-width="10.9187" stroke-miterlimit="1.5" stroke-linecap="round" stroke-linejoin="round"/>
<path fill-rule="evenodd" clip-rule="evenodd" d="M121.116 216.7C121.116 216.7 131.844 194.775 226.76 220.707C262.541 219.929 271.832 205.19 271.832 205.19C271.832 205.19 263.636 125.957 196.092 126.736C106.757 127.744 121.116 216.7 121.116 216.7Z" fill="#E83230" fill-opacity="0.7"/>
<path fill-rule="evenodd" clip-rule="evenodd" d="M121.201 211.5C121.201 211.5 128.543 202.957 144.56 204.408C160.577 205.86 180.993 208.37 180.993 208.37L181.146 212.816L144.069 209.277C134.351 208.612 127.301 211.984 121.201 216.823V211.5Z" fill="#D11917" fill-opacity="0.5"/>
<path fill-rule="evenodd" clip-rule="evenodd" d="M189.01 127.034C189.531 126.823 179.874 127.987 179.874 127.987C179.874 127.987 179.691 128.108 179.583 128.153C154.6 143.123 145.311 175.542 146.951 207.04C146.997 207.917 147.748 208.582 148.637 208.537C149.51 208.491 150.185 207.75 150.139 206.873C148.407 173.501 159.06 138.859 189.01 127.034Z" fill="#D11917" fill-opacity="0.5"/>
<path fill-rule="evenodd" clip-rule="evenodd" d="M149.878 209.846C161.91 210.647 168.853 211.252 179.904 212.688C179.904 212.688 179 213.187 178.556 213.444C169.558 218.585 166.386 226.055 162.692 234.871C160.086 241.071 157.986 245.924 156.27 249.719C155.319 251.05 153.603 251.625 152.04 251.126C150.461 250.627 149.403 249.175 149.419 247.542C149.541 231.786 150.154 220.854 149.924 211.388C149.908 210.874 149.878 209.846 149.878 209.846Z" fill="#382149" fill-opacity="0.8"/>
<path fill-rule="evenodd" clip-rule="evenodd" d="M179.911 212.704C179.911 212.704 221.379 220.073 235.098 222.53C237.881 223.027 240.762 222.642 243.317 221.454C265.858 211.163 293.443 210.665 304.981 212.479C305.893 212.72 306.854 212.543 307.602 211.997C308.367 211.451 308.823 210.6 308.855 209.669C308.888 209.075 308.904 208.658 308.904 208.658C308.904 208.658 289.96 205.703 273.36 200.807C232.478 197.114 180.253 208.449 180.253 208.449L179.911 212.704Z" fill="#B31614" fill-opacity="0.5"/>
<path fill-rule="evenodd" clip-rule="evenodd" d="M180.262 208.368C180.262 208.368 222.983 216.54 235.726 218.965C238.021 219.398 240.381 219.174 242.545 218.291C261.831 210.552 283.493 206.425 308.035 209.428C308.425 209.476 308.799 209.235 308.897 208.85C308.978 208.464 308.767 208.079 308.392 207.95C294.396 202.732 285.869 202.074 269.285 197.177C226.092 193.276 201.728 200.003 180.262 208.368Z" fill="#D11917" fill-opacity="0.5"/>
<path d="M229.33 169.013L228.294 163.492C232.546 162.789 235.281 159.142 234.497 154.964L234.327 154.061L217.781 155.024L217.782 155.027C213.074 155.373 209.937 159.213 210.769 163.65C211.552 167.827 215.581 171.08 220.002 171.279L221.038 176.799C216.786 177.503 214.052 181.151 214.835 185.328L215.005 186.231L231.717 185.258C235.088 185.062 237.781 182.978 238.484 179.977C239.807 174.319 234.875 169.262 229.33 169.013ZM226.948 156.318L232.668 155.985C232.762 158.774 230.832 161.103 227.953 161.673L226.948 156.318ZM222.384 183.975L216.664 184.308C216.569 181.518 218.499 179.189 221.379 178.621L222.384 183.975ZM219.661 169.459C216.632 169.234 213.879 167.177 212.936 164.437L218.656 164.105L219.661 169.459ZM230.102 183.526L224.313 183.863L220.247 162.186L212.597 162.631C212.492 159.543 214.868 157.021 218.266 156.823L225.019 156.43L230.102 183.526ZM232.019 183.349L229.671 170.832C233.023 171.082 236.037 173.575 236.633 176.754C237.23 179.934 235.206 182.72 232.019 183.349Z" fill="white" fill-opacity="0.5"/>
</g>
<path fill-rule="evenodd" clip-rule="evenodd" d="M233.795 276.189C232.668 275.849 217.576 276.649 209.799 282.935C205.391 286.497 211.613 289.157 214.846 288.453C218.109 287.733 233.537 286.214 237.897 281.924C240.04 279.818 236.249 276.941 233.795 276.189Z" fill="#382149" fill-opacity="0.5"/>
<path fill-rule="evenodd" clip-rule="evenodd" d="M240.822 275.511C242.656 275.085 256.046 273.283 262.644 278.697C266.263 281.661 263.512 284.825 258.603 284.528C255.741 284.34 243.143 284.859 237.839 281.642C236.081 280.563 238.064 276.159 240.822 275.511Z" fill="#382149" fill-opacity="0.5"/>
<path d="M208.259 253.149C211.1 253.149 213.403 249.997 213.403 246.111C213.403 242.225 211.1 239.074 208.259 239.074C205.419 239.074 203.115 242.225 203.115 246.111C203.115 249.997 205.419 253.149 208.259 253.149Z" fill="#310234" fill-opacity="0.8"/>
<path fill-rule="evenodd" clip-rule="evenodd" d="M230.205 243.582L243.571 273.869L230.619 275.517L230.205 243.582Z" fill="#FF5F71" fill-opacity="0.5"/>
<path fill-rule="evenodd" clip-rule="evenodd" d="M248.002 284.066C247.956 291.081 242.17 296.762 235.05 296.762C227.902 296.762 222.097 291.036 222.097 283.983H248.002V284.066Z" fill="white" fill-opacity="0.8"/>
<path d="M249.212 242.298C242.949 240.15 240.976 243.46 240.976 243.46C240.976 243.46 244.637 236.702 250.393 236.077" stroke="#310234" stroke-opacity="0.8" stroke-width="7.57034" stroke-miterlimit="1.5" stroke-linecap="round" stroke-linejoin="round"/>
<path d="M140.274 209.896L195.33 229.13" stroke="#382149" stroke-opacity="0.5" stroke-width="7.57033" stroke-miterlimit="1.5" stroke-linecap="round" stroke-linejoin="round"/>
<path d="M209.129 269.504C219.774 269.504 228.404 258.842 228.404 245.691C228.404 232.539 219.774 221.877 209.129 221.877C198.483 221.877 189.853 232.539 189.853 245.691C189.853 258.842 198.483 269.504 209.129 269.504Z" stroke="#382149" stroke-opacity="0.5" stroke-width="7.57921" stroke-miterlimit="1.5" stroke-linecap="round" stroke-linejoin="round"/>
<path d="M255.596 262.246C265.548 262.246 273.616 251.585 273.616 238.433C273.616 225.281 265.548 214.62 255.596 214.62C245.644 214.62 237.576 225.281 237.576 238.433C237.576 251.585 245.644 262.246 255.596 262.246Z" stroke="#382149" stroke-opacity="0.5" stroke-width="7.56171" stroke-miterlimit="1.5" stroke-linecap="round" stroke-linejoin="round"/>
<path d="M227.458 238.429L237.574 236.509" stroke="#382149" stroke-opacity="0.5" stroke-width="7.57033" stroke-miterlimit="1.5" stroke-linecap="round" stroke-linejoin="round"/>
<defs>
<clipPath id="clip0_0_1">
<rect width="232.977" height="229.84" fill="white" transform="translate(80.4971 98)"/>
</clipPath>
</defs>
</svg>
