<svg width="565" height="823" viewBox="0 0 565 823" fill="none" xmlns="http://www.w3.org/2000/svg">
<path fill-rule="evenodd" clip-rule="evenodd" d="M492.11 367.953C443.617 314.876 327.616 265.918 209.755 262.786C67.1086 258.997 -71.1707 314.356 -110.151 381.465C-181.338 504.019 -162.479 822.372 -162.479 822.372H538.557C538.557 822.372 563.769 446.384 492.11 367.953Z" fill="#002EFF" fill-opacity="0.25"/>
<path fill-rule="evenodd" clip-rule="evenodd" d="M208.313 225.811L142.308 208.671L142.062 272.824C142.062 272.824 143.165 287.723 178.273 287.209C217.103 286.64 214.805 272.349 214.805 272.349L208.313 225.811Z" fill="#FFB8C0" fill-opacity="0.8"/>
<path fill-rule="evenodd" clip-rule="evenodd" d="M208.301 225.813L175.748 218.174C178.588 236.668 193.721 263.967 214.959 272.663L208.301 225.813Z" fill="#FF9CA0" fill-opacity="0.8"/>
<path d="M523.141 786.793H415.587" stroke="#626262" stroke-opacity="0.5" stroke-width="15.1771" stroke-miterlimit="1.5" stroke-linejoin="round"/>
<path fill-rule="evenodd" clip-rule="evenodd" d="M433.532 822.371H409.238C409.207 820.397 409.177 625.42 409.146 623.44C408.104 569.173 403.061 513.151 395.52 456.032C423.232 492.819 432.06 602.43 432.06 623.017C432.06 623.017 433.455 821.404 433.532 822.371Z" fill="#626262" fill-opacity="0.5"/>
<path fill-rule="evenodd" clip-rule="evenodd" d="M-14.5054 822.373V602.21C-12.9389 551.732 -7.03174 493.785 12.5935 456.034C14.4466 497.84 15.8889 602.21 15.8889 602.21L14.5738 822.373H-14.5054Z" fill="#626262" fill-opacity="0.5"/>
<path fill-rule="evenodd" clip-rule="evenodd" d="M144.714 238.534C144.714 238.534 125.075 239.956 124.521 256.12C123.966 272.269 124.798 278.923 124.798 278.923C124.798 278.923 135.06 294.134 179.437 293.182C223.815 292.229 232.69 276.307 232.69 276.307V249.89C232.655 243.706 222.47 237.446 214.009 238.58C186.906 247.834 170.04 247.032 144.714 238.534Z" fill="#2D57FF" fill-opacity="0.5"/>
<g clip-path="url(#clip0_50_3142)">
<path fill-rule="evenodd" clip-rule="evenodd" d="M142.881 211.713C142.881 211.713 132.413 205.091 130.533 182.309C128.179 153.81 130.817 137.208 122.877 123.207C115.065 109.43 151.27 114.963 151.27 114.963L142.881 211.713Z" fill="#382149" fill-opacity="0.8"/>
<path fill-rule="evenodd" clip-rule="evenodd" d="M142.943 163.043L142.757 211.678C163.969 218.756 185.745 224.858 208.762 228.819C208.762 228.819 267.728 240.891 269.113 188.506C270.537 134.621 262.351 108.442 262.351 108.442C225.807 117.772 189.979 115.621 147.486 111.079C104.313 106.464 103.539 161.966 142.943 163.043Z" fill="#FFB8C0" fill-opacity="0.7"/>
<path d="M130.412 126.427C130.143 131.021 131.945 138.524 138.076 139.28" stroke="#FF6D7E" stroke-opacity="0.5" stroke-width="10.9187" stroke-linecap="round"/>
<path d="M139.716 124.172C139.716 124.172 123.514 121.134 125.048 140.035" stroke="#FF6D7E" stroke-opacity="0.5" stroke-width="10.9187" stroke-miterlimit="1.5" stroke-linecap="round" stroke-linejoin="round"/>
<path fill-rule="evenodd" clip-rule="evenodd" d="M121.116 118.7C121.116 118.7 131.844 96.7748 226.76 122.707C262.541 121.929 271.832 107.19 271.832 107.19C271.832 107.19 263.636 27.9573 196.092 28.7358C106.757 29.7443 121.116 118.7 121.116 118.7Z" fill="#E83230" fill-opacity="0.7"/>
<path fill-rule="evenodd" clip-rule="evenodd" d="M121.201 113.5C121.201 113.5 128.543 104.957 144.56 106.408C160.577 107.86 180.993 110.37 180.993 110.37L181.146 114.816L144.069 111.277C134.351 110.612 127.301 113.984 121.201 118.823V113.5Z" fill="#D11917" fill-opacity="0.5"/>
<path fill-rule="evenodd" clip-rule="evenodd" d="M189.01 29.0344C189.531 28.8227 179.874 29.9868 179.874 29.9868C179.874 29.9868 179.691 30.108 179.583 30.1533C154.6 45.1231 145.311 77.5425 146.951 109.04C146.997 109.917 147.748 110.582 148.637 110.537C149.51 110.491 150.185 109.75 150.139 108.873C148.407 75.501 159.06 40.859 189.01 29.0344Z" fill="#D11917" fill-opacity="0.5"/>
<path fill-rule="evenodd" clip-rule="evenodd" d="M149.878 111.846C161.91 112.647 168.853 113.252 179.904 114.688C179.904 114.688 179 115.187 178.556 115.444C169.558 120.585 166.386 128.055 162.692 136.871C160.086 143.071 157.986 147.924 156.27 151.719C155.319 153.05 153.603 153.625 152.04 153.126C150.461 152.627 149.403 151.175 149.419 149.542C149.541 133.786 150.154 122.854 149.924 113.388C149.908 112.874 149.878 111.846 149.878 111.846Z" fill="#382149" fill-opacity="0.8"/>
<path fill-rule="evenodd" clip-rule="evenodd" d="M179.911 114.704C179.911 114.704 221.379 122.073 235.098 124.53C237.881 125.027 240.762 124.642 243.317 123.454C265.858 113.163 293.443 112.665 304.981 114.479C305.893 114.72 306.854 114.543 307.602 113.997C308.367 113.451 308.823 112.6 308.855 111.669C308.888 111.075 308.904 110.658 308.904 110.658C308.904 110.658 289.96 107.703 273.36 102.807C232.478 99.1138 180.253 110.449 180.253 110.449L179.911 114.704Z" fill="#B31614" fill-opacity="0.5"/>
<path fill-rule="evenodd" clip-rule="evenodd" d="M180.262 110.368C180.262 110.368 222.983 118.54 235.726 120.965C238.021 121.398 240.381 121.174 242.545 120.291C261.831 112.552 283.493 108.425 308.035 111.428C308.425 111.476 308.799 111.235 308.897 110.85C308.978 110.464 308.767 110.079 308.392 109.95C294.396 104.732 285.869 104.074 269.285 99.1773C226.092 95.2758 201.728 102.003 180.262 110.368Z" fill="#D11917" fill-opacity="0.5"/>
<path d="M229.33 71.0127L228.294 65.4925C232.546 64.7892 235.281 61.1424 234.497 56.964L234.327 56.0609L217.781 57.0238L217.782 57.0266C213.074 57.3731 209.937 61.2133 210.769 65.6504C211.552 69.8274 215.581 73.0805 220.002 73.2792L221.038 78.7995C216.786 79.5028 214.052 83.1509 214.835 87.3277L215.005 88.231L231.717 87.2585C235.088 87.0623 237.781 84.9784 238.484 81.9771C239.807 76.3194 234.875 71.2619 229.33 71.0127ZM226.948 58.3177L232.668 57.9849C232.762 60.7737 230.832 63.1033 227.953 63.6727L226.948 58.3177ZM222.384 85.9753L216.664 86.3082C216.569 83.518 218.499 81.1887 221.379 80.6205L222.384 85.9753ZM219.661 71.4595C216.632 71.2337 213.879 69.1768 212.936 66.4374L218.656 66.1045L219.661 71.4595ZM230.102 85.5262L224.313 85.863L220.247 64.1858L212.597 64.631C212.492 61.5433 214.868 59.0207 218.266 58.823L225.019 58.43L230.102 85.5262ZM232.019 85.3486L229.671 72.8325C233.023 73.0823 236.037 75.5746 236.633 78.7537C237.23 81.934 235.206 84.7195 232.019 85.3486Z" fill="white" fill-opacity="0.5"/>
</g>
<path fill-rule="evenodd" clip-rule="evenodd" d="M233.795 178.189C232.668 177.849 217.576 178.649 209.799 184.935C205.391 188.497 211.613 191.157 214.846 190.453C218.109 189.733 233.537 188.214 237.897 183.924C240.04 181.818 236.249 178.941 233.795 178.189Z" fill="#382149" fill-opacity="0.5"/>
<path fill-rule="evenodd" clip-rule="evenodd" d="M240.822 177.511C242.656 177.085 256.046 175.283 262.644 180.697C266.263 183.661 263.512 186.825 258.603 186.528C255.741 186.34 243.143 186.859 237.839 183.642C236.081 182.563 238.064 178.159 240.822 177.511Z" fill="#382149" fill-opacity="0.5"/>
<path d="M208.259 155.149C211.1 155.149 213.403 151.997 213.403 148.111C213.403 144.225 211.1 141.074 208.259 141.074C205.419 141.074 203.115 144.225 203.115 148.111C203.115 151.997 205.419 155.149 208.259 155.149Z" fill="#310234" fill-opacity="0.8"/>
<path fill-rule="evenodd" clip-rule="evenodd" d="M230.205 145.582L243.571 175.869L230.619 177.517L230.205 145.582Z" fill="#FF5F71" fill-opacity="0.5"/>
<path fill-rule="evenodd" clip-rule="evenodd" d="M248.002 186.066C247.956 193.081 242.17 198.762 235.05 198.762C227.902 198.762 222.097 193.036 222.097 185.983H248.002V186.066Z" fill="white" fill-opacity="0.8"/>
<path d="M249.212 144.298C242.949 142.15 240.976 145.46 240.976 145.46C240.976 145.46 244.637 138.702 250.393 138.077" stroke="#310234" stroke-opacity="0.8" stroke-width="7.57034" stroke-miterlimit="1.5" stroke-linecap="round" stroke-linejoin="round"/>
<path d="M140.274 111.896L195.33 131.13" stroke="#382149" stroke-opacity="0.5" stroke-width="7.57033" stroke-miterlimit="1.5" stroke-linecap="round" stroke-linejoin="round"/>
<path d="M209.129 171.504C219.774 171.504 228.404 160.842 228.404 147.691C228.404 134.539 219.774 123.877 209.129 123.877C198.483 123.877 189.853 134.539 189.853 147.691C189.853 160.842 198.483 171.504 209.129 171.504Z" stroke="#382149" stroke-opacity="0.5" stroke-width="7.57921" stroke-miterlimit="1.5" stroke-linecap="round" stroke-linejoin="round"/>
<path d="M255.596 164.246C265.548 164.246 273.616 153.585 273.616 140.433C273.616 127.281 265.548 116.62 255.596 116.62C245.644 116.62 237.576 127.281 237.576 140.433C237.576 153.585 245.644 164.246 255.596 164.246Z" stroke="#382149" stroke-opacity="0.5" stroke-width="7.56171" stroke-miterlimit="1.5" stroke-linecap="round" stroke-linejoin="round"/>
<path d="M227.458 140.429L237.574 138.509" stroke="#382149" stroke-opacity="0.5" stroke-width="7.57033" stroke-miterlimit="1.5" stroke-linecap="round" stroke-linejoin="round"/>
<defs>
<clipPath id="clip0_50_3142">
<rect width="232.977" height="229.84" fill="white" transform="translate(80.4971)"/>
</clipPath>
</defs>
</svg>
