<svg width="1063" height="1475" viewBox="0 0 1063 1475" fill="none" xmlns="http://www.w3.org/2000/svg">
<path fill-rule="evenodd" clip-rule="evenodd" d="M1429.85 735.109C1375.77 184.087 984.514 445.774 763.164 251.83C643.519 146.998 425.78 65.2189 234.604 201.114C53.6093 329.77 40.3734 537.798 40.3734 736.903C40.3734 936.009 39.8472 1304.64 754.463 1304.64C1348.51 1304.64 1450.21 942.586 1429.85 735.109Z" fill="#F4F6FF" fill-opacity="0.5"/>
<path fill-rule="evenodd" clip-rule="evenodd" d="M809.993 1068.69L809.991 1303.16C563.996 1314.07 325.979 1290.03 173.311 1144.6C151.733 1124.05 127.586 1095.19 109.886 1067.16L809.993 1068.69Z" fill="#C2CEFF" fill-opacity="0.5"/>
<path fill-rule="evenodd" clip-rule="evenodd" d="M720.431 1137.1L720.722 1304.64C509.169 1308.79 287.92 1266.64 166.675 1137.1L720.431 1137.1Z" fill="#ACBCFF" fill-opacity="0.5"/>
<path fill-rule="evenodd" clip-rule="evenodd" d="M92.1861 1036.22H823.719C832.59 1036.22 839.768 1043.41 839.768 1052.27V1052.62C839.768 1061.48 832.59 1068.67 823.719 1068.67H110.852C105.461 1060.53 98.8236 1049.46 92.1861 1036.22Z" fill="#A9BAFF" fill-opacity="0.5"/>
<path d="M369.868 756.084H758.726L731.813 979.83H342.955L369.868 756.084Z" fill="#A9BAFF" fill-opacity="0.5"/>
<path d="M391.927 756.084H780.785L753.872 979.83H365.014L391.927 756.084Z" fill="#C2CEFF" fill-opacity="0.5"/>
<path d="M555.654 912.858H597.672L575.97 1036.19H533.952L555.654 912.858Z" fill="#859DFF" fill-opacity="0.5"/>
<path d="M564.02 912.858H600.325L578.624 1036.19H542.318L564.02 912.858Z" fill="#A9BAFF" fill-opacity="0.5"/>
<path d="M496.738 822.998H678.5L659.181 939.788H477.418L496.738 822.998Z" fill="#859DFF" fill-opacity="0.5"/>
<path d="M509.613 822.998H691.375L672.055 939.788H490.293L509.613 822.998Z" fill="#A9BAFF" fill-opacity="0.5"/>
<path d="M438.167 1023.6H670.316V1036.19H438.167V1023.6Z" fill="#A9BAFF" fill-opacity="0.5"/>
<path d="M430.013 1023.6H488.173V1036.19H430.013V1023.6Z" fill="#859DFF" fill-opacity="0.5"/>
<path fill-rule="evenodd" clip-rule="evenodd" d="M195.907 1036.22L215.298 959.477H62.6875C70.0625 984.562 81.125 1015.54 92.32 1036.22H195.907Z" fill="#BECAFF" fill-opacity="0.5"/>
<path fill-rule="evenodd" clip-rule="evenodd" d="M77.4374 1002.89L204.594 1002.33L209.45 983.125L70.7999 983.29L77.4374 1002.89Z" fill="#D6DEFF" fill-opacity="0.5"/>
<path fill-rule="evenodd" clip-rule="evenodd" d="M193.835 959.477C193.835 959.477 216.207 932.781 222.456 899.298C228.705 865.83 220.493 836.293 220.493 836.293C220.493 836.293 178.04 841.54 152.7 874.036C127.375 906.517 116.182 959.477 116.182 959.477H193.835Z" fill="#B2C1FF" fill-opacity="0.5"/>
<path fill-rule="evenodd" clip-rule="evenodd" d="M62.6874 959.48C51.6249 921.875 47.9374 885 43.5125 845.913C108.308 850.41 149.301 889.326 154.86 959.48H62.6874Z" fill="#B2C1FF" fill-opacity="0.5"/>
<path d="M1135.98 693.372C1058.62 693.372 995.907 630.815 995.907 553.648C995.907 476.481 1058.62 413.925 1135.98 413.925C1213.34 413.925 1276.05 476.481 1276.05 553.648C1276.05 630.815 1213.34 693.372 1135.98 693.372Z" fill="#C2CEFF" fill-opacity="0.5"/>
<path d="M1135.98 669.828C1071.65 669.828 1019.51 617.81 1019.51 553.643C1019.51 489.475 1071.65 437.457 1135.98 437.457C1200.31 437.457 1252.46 489.475 1252.46 553.643C1252.46 617.81 1200.31 669.828 1135.98 669.828Z" fill="#F1F4FF" fill-opacity="0.5"/>
<path fill-rule="evenodd" clip-rule="evenodd" d="M1285.2 1138.07L1285.87 754.71H999.06V1279.56C1105.35 1255.77 1203.01 1215.95 1285.2 1138.07Z" fill="#C2CEFF" fill-opacity="0.5"/>
<path fill-rule="evenodd" clip-rule="evenodd" d="M1030.11 799.401C1030.11 795.573 1031.62 791.907 1034.33 789.215C1037.03 786.506 1040.7 784.981 1044.52 784.981C1085.36 784.981 1201.48 784.981 1242.33 784.981C1246.15 784.981 1249.8 786.506 1252.52 789.215C1255.21 791.907 1256.74 795.573 1256.74 799.401C1256.74 817.747 1256.74 849.264 1256.74 867.625C1256.74 871.454 1255.21 875.119 1252.52 877.812C1249.8 880.521 1246.15 882.046 1242.33 882.046C1201.48 882.046 1085.36 882.046 1044.52 882.046C1040.7 882.046 1037.03 880.521 1034.33 877.812C1031.62 875.119 1030.11 871.454 1030.11 867.625C1030.11 849.264 1030.11 817.747 1030.11 799.401Z" fill="#D6DEFF" fill-opacity="0.5"/>
<path fill-rule="evenodd" clip-rule="evenodd" d="M1030.11 931.469C1030.11 928.079 1031.46 924.835 1033.84 922.45C1036.24 920.05 1039.47 918.703 1042.86 918.703C1082.66 918.703 1204.19 918.703 1243.98 918.703C1247.36 918.703 1250.61 920.05 1253 922.45C1255.39 924.835 1256.74 928.079 1256.74 931.469C1256.74 950.058 1256.74 984.413 1256.74 1003C1256.74 1006.39 1255.39 1009.64 1253 1012.02C1250.61 1014.42 1247.36 1015.77 1243.98 1015.77C1204.19 1015.77 1082.66 1015.77 1042.86 1015.77C1039.47 1015.77 1036.24 1014.42 1033.84 1012.02C1031.46 1009.64 1030.11 1006.39 1030.11 1003C1030.11 984.413 1030.11 950.058 1030.11 931.469Z" fill="#D6DEFF" fill-opacity="0.5"/>
<path fill-rule="evenodd" clip-rule="evenodd" d="M1030.11 1065.19C1030.11 1061.8 1031.46 1058.56 1033.84 1056.17C1036.24 1053.77 1039.47 1052.42 1042.86 1052.42C1082.66 1052.42 1204.19 1052.42 1243.98 1052.42C1247.36 1052.42 1250.61 1053.77 1253 1056.17C1255.39 1058.56 1256.74 1061.8 1256.74 1065.19C1256.74 1083.78 1256.74 1118.13 1256.74 1136.72C1256.74 1140.11 1255.39 1143.36 1253 1145.74C1250.61 1148.14 1247.36 1149.49 1243.98 1149.49C1204.19 1149.49 1082.66 1149.49 1042.86 1149.49C1039.47 1149.49 1036.24 1148.14 1033.84 1145.74C1031.46 1143.36 1030.11 1140.11 1030.11 1136.72C1030.11 1118.13 1030.11 1083.78 1030.11 1065.19Z" fill="#D6DEFF" fill-opacity="0.5"/>
<path fill-rule="evenodd" clip-rule="evenodd" d="M1030.11 1198.75C1030.11 1191.61 1035.91 1185.82 1043.07 1185.82C1078.71 1185.82 1227.2 1185.16 1227.2 1185.16C1174.1 1223.51 1094.45 1255.96 1030.11 1272.19C1030.11 1272.19 1030.11 1217.32 1030.11 1198.75Z" fill="#D6DEFF" fill-opacity="0.5"/>
<path fill-rule="evenodd" clip-rule="evenodd" d="M999.062 754.71L887.213 754.71V1298C910.934 1295.2 970.725 1286.96 999.062 1279.56V754.71Z" fill="#A9BAFF" fill-opacity="0.5"/>
<path d="M270.124 357.127H858.816V693.367H270.124V357.127Z" fill="#ACBCFF" fill-opacity="0.5"/>
<path d="M289.576 357.127H878.268V693.367H289.576V357.127Z" fill="#C2CEFF" fill-opacity="0.5"/>
<path d="M308.666 374.65H858.45V676.838H308.666V374.65Z" fill="#DFE5FF" fill-opacity="0.5"/>
<path d="M518.159 412.905H648C652.074 412.905 655.375 416.207 655.375 420.28V483.641C655.375 487.714 652.074 491.016 648 491.016H518.159C514.086 491.016 510.784 487.714 510.784 483.641V420.28C510.784 416.207 514.086 412.905 518.159 412.905Z" fill="white" fill-opacity="0.5"/>
<path fill-rule="evenodd" clip-rule="evenodd" d="M642.667 427.378C642.667 426.741 642.15 426.225 641.513 426.225H612.437C611.8 426.225 611.284 426.741 611.284 427.378V455.76C611.284 456.397 611.8 456.913 612.437 456.913H641.513C642.15 456.913 642.667 456.397 642.667 455.76V427.378ZM640.36 428.532V454.606H613.591V428.532H640.36Z" fill="#A9BAFF" fill-opacity="0.5"/>
<path fill-rule="evenodd" clip-rule="evenodd" d="M600.298 428.806C600.298 427.959 599.611 427.272 598.764 427.272H527.779C526.932 427.272 526.245 427.959 526.245 428.806C526.245 429.653 526.932 430.34 527.779 430.34H598.764C599.611 430.34 600.298 429.653 600.298 428.806Z" fill="#A9BAFF" fill-opacity="0.5"/>
<path fill-rule="evenodd" clip-rule="evenodd" d="M600.298 444.292C600.298 443.445 599.611 442.758 598.764 442.758H527.779C526.932 442.758 526.245 443.445 526.245 444.292C526.245 445.139 526.932 445.826 527.779 445.826H598.764C599.611 445.826 600.298 445.139 600.298 444.292Z" fill="#A9BAFF" fill-opacity="0.5"/>
<path fill-rule="evenodd" clip-rule="evenodd" d="M600.242 461.168C600.242 460.353 599.582 459.693 598.767 459.693H551.254C550.439 459.693 549.779 460.353 549.779 461.168C549.779 461.983 550.439 462.643 551.254 462.643H598.767C599.582 462.643 600.242 461.983 600.242 461.168Z" fill="#A9BAFF" fill-opacity="0.5"/>
<path d="M694.725 439.55H821.575C825.648 439.55 828.95 442.852 828.95 446.925V620.975C828.95 625.048 825.648 628.35 821.575 628.35H694.725C690.652 628.35 687.35 625.048 687.35 620.975V446.925C687.35 442.852 690.652 439.55 694.725 439.55Z" fill="white" fill-opacity="0.5"/>
<path d="M760.362 448.4C755.067 448.4 750.775 444.107 750.775 438.812C750.775 433.517 755.067 429.225 760.362 429.225C765.657 429.225 769.95 433.517 769.95 438.812C769.95 444.107 765.657 448.4 760.362 448.4Z" fill="#A9BAFF" fill-opacity="0.5"/>
<path fill-rule="evenodd" clip-rule="evenodd" d="M814.529 469.165C814.529 468.419 813.924 467.814 813.177 467.814H702.262C701.515 467.814 700.91 468.419 700.91 469.165C700.91 469.912 701.515 470.517 702.262 470.517H813.177C813.924 470.517 814.529 469.912 814.529 469.165Z" fill="#A9BAFF" fill-opacity="0.5"/>
<path fill-rule="evenodd" clip-rule="evenodd" d="M814.529 495.609C814.529 494.862 813.924 494.257 813.177 494.257H702.262C701.515 494.257 700.91 494.862 700.91 495.609C700.91 496.355 701.515 496.96 702.262 496.96H813.177C813.924 496.96 814.529 496.355 814.529 495.609Z" fill="#A9BAFF" fill-opacity="0.5"/>
<path fill-rule="evenodd" clip-rule="evenodd" d="M814.529 522.036C814.529 521.29 813.924 520.685 813.177 520.685H702.262C701.515 520.685 700.91 521.29 700.91 522.036C700.91 522.783 701.515 523.388 702.262 523.388H813.177C813.924 523.388 814.529 522.783 814.529 522.036Z" fill="#A9BAFF" fill-opacity="0.5"/>
<path fill-rule="evenodd" clip-rule="evenodd" d="M814.529 548.478C814.529 547.732 813.924 547.127 813.177 547.127H702.262C701.515 547.127 700.91 547.732 700.91 548.478C700.91 549.225 701.515 549.83 702.262 549.83H813.177C813.924 549.83 814.529 549.225 814.529 548.478Z" fill="#A9BAFF" fill-opacity="0.5"/>
<path fill-rule="evenodd" clip-rule="evenodd" d="M814.743 574.92C814.743 574.076 814.059 573.392 813.215 573.392H752.846C752.002 573.392 751.317 574.076 751.317 574.92C751.317 575.764 752.002 576.449 752.846 576.449H813.215C814.059 576.449 814.743 575.764 814.743 574.92Z" fill="#A9BAFF" fill-opacity="0.5"/>
<path d="M336.091 442.28H465.933C470.006 442.28 473.308 445.582 473.308 449.655V600.853C473.308 604.926 470.006 608.228 465.933 608.228H336.091C332.018 608.228 328.716 604.926 328.716 600.853V449.655C328.716 445.582 332.018 442.28 336.091 442.28Z" fill="white" fill-opacity="0.5"/>
<path d="M399.725 452.825C393.208 452.825 387.925 447.542 387.925 441.025C387.925 434.508 393.208 429.225 399.725 429.225C406.242 429.225 411.525 434.508 411.525 441.025C411.525 447.542 406.242 452.825 399.725 452.825Z" fill="#A9BAFF" fill-opacity="0.5"/>
<path fill-rule="evenodd" clip-rule="evenodd" d="M460.908 469.69C460.908 468.917 460.282 468.29 459.509 468.29H342.436C341.663 468.29 341.036 468.917 341.036 469.69V534.96C341.036 535.733 341.663 536.36 342.436 536.36H459.509C460.282 536.36 460.908 535.733 460.908 534.96V469.69ZM458.109 471.089V533.561H343.836V471.089H458.109Z" fill="#A9BAFF" fill-opacity="0.5"/>
<path fill-rule="evenodd" clip-rule="evenodd" d="M460.953 553.319C460.953 552.523 460.308 551.878 459.512 551.878H342.446C341.65 551.878 341.004 552.523 341.004 553.319C341.004 554.116 341.65 554.761 342.446 554.761H459.512C460.308 554.761 460.953 554.116 460.953 553.319Z" fill="#A9BAFF" fill-opacity="0.5"/>
<path fill-rule="evenodd" clip-rule="evenodd" d="M460.99 574.321C460.99 573.498 460.323 572.831 459.5 572.831H359.817C358.994 572.831 358.327 573.498 358.327 574.321C358.327 575.144 358.994 575.811 359.817 575.811H459.5C460.323 575.811 460.99 575.144 460.99 574.321Z" fill="#A9BAFF" fill-opacity="0.5"/>
<path d="M518.159 514.615H648C652.074 514.615 655.375 517.917 655.375 521.99V637.795C655.375 641.868 652.074 645.17 648 645.17H518.159C514.086 645.17 510.784 641.868 510.784 637.795V521.99C510.784 517.917 514.086 514.615 518.159 514.615Z" fill="white" fill-opacity="0.5"/>
<path fill-rule="evenodd" clip-rule="evenodd" d="M643.015 529.047C643.015 528.205 642.332 527.522 641.49 527.522H524.417C523.575 527.522 522.892 528.205 522.892 529.047V557.9C522.892 558.742 523.575 559.425 524.417 559.425H641.49C642.332 559.425 643.015 558.742 643.015 557.9V529.047ZM639.965 530.571V556.376H525.942V530.571H639.965Z" fill="#A9BAFF" fill-opacity="0.5"/>
<path fill-rule="evenodd" clip-rule="evenodd" d="M641.755 576.324C641.755 575.502 641.088 574.835 640.266 574.835H540.583C539.76 574.835 539.093 575.502 539.093 576.324C539.093 577.147 539.76 577.814 540.583 577.814H640.266C641.088 577.814 641.755 577.147 641.755 576.324Z" fill="#A9BAFF" fill-opacity="0.5"/>
<path fill-rule="evenodd" clip-rule="evenodd" d="M641.755 597.026C641.755 596.204 641.088 595.537 640.266 595.537H540.583C539.76 595.537 539.093 596.204 539.093 597.026C539.093 597.849 539.76 598.516 540.583 598.516H640.266C641.088 598.516 641.755 597.849 641.755 597.026Z" fill="#A9BAFF" fill-opacity="0.5"/>
<path fill-rule="evenodd" clip-rule="evenodd" d="M641.836 619.971C641.836 619.121 641.147 618.432 640.297 618.432H569.575C568.725 618.432 568.036 619.121 568.036 619.971C568.036 620.821 568.725 621.51 569.575 621.51H640.297C641.147 621.51 641.836 620.821 641.836 619.971Z" fill="#A9BAFF" fill-opacity="0.5"/>
<mask id="mask0_62_2959" style="mask-type:alpha" maskUnits="userSpaceOnUse" x="237" y="431" width="963" height="877">
<path fill-rule="evenodd" clip-rule="evenodd" d="M1199.49 960.783C1199.49 863.708 1199.49 662.018 1199.49 431.121C975.028 431.121 946.886 431.122 781.248 431.121C469.271 431.12 444.345 431.122 237.701 431.121C237.701 755.705 237.701 788.164 237.701 940.128C237.701 1092.09 237.701 1120.12 237.701 1229.83C258.391 1238.71 282.899 1247.16 311.805 1255.12C422.766 1295.69 574.162 1311.01 739.671 1307.3C887.025 1303.99 1085.32 1274.3 1199.49 1217.5C1199.49 1128.98 1199.49 1105.37 1199.49 960.783Z" fill="#F4F6FF"/>
</mask>
<g mask="url(#mask0_62_2959)">
<path fill-rule="evenodd" clip-rule="evenodd" d="M472.146 872.973C522.367 802.323 647.288 741.962 773.126 738.257C971.816 732.404 1068.84 826.237 1112.74 910.043C1167.77 1015.06 1173.8 1230.57 1172.16 1347.62C1172 1359.23 1170 1405.36 1170 1405.36H421.565C421.565 1405.36 419.34 1357.8 419.045 1349.07C414.725 1226.33 403.074 956.797 472.146 872.973Z" fill="#370285" fill-opacity="0.5"/>
<path fill-rule="evenodd" clip-rule="evenodd" d="M1016.52 1405.36V1144.74C1014.78 1084.99 1008.24 1016.4 986.444 971.707C984.385 1021.2 982.786 1144.74 982.786 1144.74L984.249 1405.36H1016.52Z" fill="#000E5D" fill-opacity="0.5"/>
<path fill-rule="evenodd" clip-rule="evenodd" d="M535.832 1405.36H578.447L578.537 1075.85C570.395 1061.71 558.55 1046.76 552.835 1027.43C552.835 1027.43 551.648 1032.46 551.091 1035.04C539.804 1087.25 537.557 1153.92 537.557 1169.37C537.557 1169.37 535.922 1404.21 535.832 1405.36Z" fill="#000E5D" fill-opacity="0.5"/>
<path d="M584.734 878.991C584.734 878.991 547.071 922.072 547.071 980.453C547.071 1038.83 574.987 1076.08 574.987 1076.08" stroke="#000E5D" stroke-opacity="0.5" stroke-width="6.35376" stroke-miterlimit="1.5" stroke-linecap="round" stroke-linejoin="round"/>
<path fill-rule="evenodd" clip-rule="evenodd" d="M761.69 1074.06C719.081 1013.67 680.146 945.665 656.189 865.718L719.983 837.871C723.623 930.579 740.819 1009.91 761.69 1074.06Z" fill="#000E5D" fill-opacity="0.5"/>
<path fill-rule="evenodd" clip-rule="evenodd" d="M870.104 743.402L910.46 752.08L908.102 849.144L827.685 836.655L870.104 743.402Z" fill="#000E5D" fill-opacity="0.5"/>
<path fill-rule="evenodd" clip-rule="evenodd" d="M829.35 836.51L906.161 871.89L761.691 1074.06C780.915 991.102 792.79 907.489 829.35 836.51Z" fill="#000E5D" fill-opacity="0.5"/>
<path fill-rule="evenodd" clip-rule="evenodd" d="M719.776 838.979L656.191 850.415L680.079 751.88C695.594 746.398 708.699 744.546 721.613 742.949L719.776 838.979Z" fill="#000E5D" fill-opacity="0.5"/>
<path d="M761.882 1048.81L762.281 1405.37" stroke="#000E5D" stroke-opacity="0.5" stroke-width="6.35339" stroke-miterlimit="1.5" stroke-linejoin="round"/>
<path fill-rule="evenodd" clip-rule="evenodd" d="M870.106 744.052C817.477 846.418 784.853 958.477 761.658 1074.06C719.742 935.477 715.963 855.349 721.614 742.908C770.707 734.613 826.145 735.193 870.106 744.052Z" fill="#FFB8C0" fill-opacity="0.5"/>
<path fill-rule="evenodd" clip-rule="evenodd" d="M727.364 782.462H758.931C760.37 782.462 761.67 783.357 762.242 784.717L768.344 799.431C769.142 801.328 768.292 803.53 766.454 804.335C764.617 805.141 762.502 804.264 761.705 802.366L756.539 789.926H727.364C725.37 789.926 723.759 788.243 723.759 786.185C723.759 784.127 725.37 782.462 727.364 782.462Z" fill="#FF9CA0" fill-opacity="0.5"/>
<path fill-rule="evenodd" clip-rule="evenodd" d="M836.109 782.461H804.542C803.103 782.461 801.803 783.369 801.231 784.748L795.129 799.67C794.332 801.595 795.181 803.827 797.019 804.644C798.856 805.461 800.971 804.572 801.768 802.648L806.934 790.031H836.109C838.103 790.031 839.715 788.325 839.715 786.237C839.715 784.149 838.103 782.461 836.109 782.461Z" fill="#FF9CA0" fill-opacity="0.5"/>
<path fill-rule="evenodd" clip-rule="evenodd" d="M721.45 872.431L815.825 871.886C815.825 871.886 813.746 877.568 812.757 880.436C790.261 945.969 774.605 1009.67 761.68 1076.33C739.453 1000.32 726.931 941.304 722.422 885.719C722.12 881.979 721.45 872.431 721.45 872.431Z" fill="#446FFF" fill-opacity="0.5"/>
<path fill-rule="evenodd" clip-rule="evenodd" d="M808.061 894.582H723.206L722.461 887.175H810.488L808.061 894.582Z" fill="#6A8DFF" fill-opacity="0.5"/>
<path fill-rule="evenodd" clip-rule="evenodd" d="M750.051 700.2L824.696 679.91L824.974 755.857C824.974 755.857 823.725 773.489 784.028 772.88C740.119 772.2 742.701 755.285 742.701 755.285L750.051 700.2Z" fill="#FFB8C0" fill-opacity="0.5"/>
<path fill-rule="evenodd" clip-rule="evenodd" d="M750.069 700.203L786.888 691.16C783.664 713.053 766.555 745.367 742.528 755.661L750.069 700.203Z" fill="#FF9CA0" fill-opacity="0.5"/>
<path d="M867.181 1279.05C859.963 1279.05 854.112 1273.01 854.112 1265.55C854.112 1258.1 859.963 1252.06 867.181 1252.06C874.399 1252.06 880.25 1258.1 880.25 1265.55C880.25 1273.01 874.399 1279.05 867.181 1279.05Z" fill="#000E5D" fill-opacity="0.5"/>
<path d="M672.175 1279.05C664.957 1279.05 659.106 1273.01 659.106 1265.55C659.106 1258.1 664.957 1252.06 672.175 1252.06C679.393 1252.06 685.244 1258.1 685.244 1265.55C685.244 1273.01 679.393 1279.05 672.175 1279.05Z" fill="#000E5D" fill-opacity="0.5"/>
<path fill-rule="evenodd" clip-rule="evenodd" d="M862.167 511.989C862.167 511.989 913.393 429.024 963.981 475.816C1014.59 522.607 971.474 634.414 988.964 690.63C1006.45 746.846 1021.46 767.458 1021.46 767.458L917.762 751.218C917.762 751.218 901.514 670.017 912.15 623.796C922.751 577.573 909.026 515.735 881.539 530.102C854.052 544.468 862.167 511.989 862.167 511.989Z" fill="#382149" fill-opacity="0.8"/>
<path fill-rule="evenodd" clip-rule="evenodd" d="M887.984 550.815L904.604 543.458C904.604 543.458 904.924 520.751 895.016 506.04C885.09 491.329 871.027 490.69 871.027 490.69L856.006 504.123L887.984 550.815Z" fill="#FF5F71" fill-opacity="0.8"/>
<path fill-rule="evenodd" clip-rule="evenodd" d="M845.349 572.243C845.349 572.243 777.397 577.019 741.192 576.22C705.786 575.421 688.154 561.802 688.154 561.802C688.154 561.802 701.844 499.815 762.961 499.815C851.422 499.815 845.349 572.243 845.349 572.243Z" fill="#FFB8C0" fill-opacity="0.8"/>
<path fill-rule="evenodd" clip-rule="evenodd" d="M683.75 672.759L750.425 702.993L826.706 683.049C826.706 683.049 849.877 686.181 876.458 623.835C911.775 541.061 877.701 492.731 813.655 490.467C813.655 490.467 773.153 470.764 743.642 477.055C659.034 495.092 687.391 561.834 687.391 561.834C689.042 583.236 683.75 672.759 683.75 672.759Z" fill="#382149" fill-opacity="0.8"/>
<path fill-rule="evenodd" clip-rule="evenodd" d="M826.492 625.95L826.705 683.059C802.131 691.371 776.899 698.537 750.247 703.188C750.247 703.188 681.921 717.364 680.323 655.85C678.672 592.575 688.154 561.834 688.154 561.834C724.554 571.122 770.951 575.412 821.219 564.929C870.474 554.657 872.143 624.686 826.492 625.95Z" fill="#FFB8C0" fill-opacity="0.8"/>
<path d="M841.114 581.559C841.426 586.954 839.338 595.764 832.236 596.652" stroke="#FF6D7E" stroke-opacity="0.8" stroke-width="4.5745" stroke-linecap="round"/>
<path d="M830.336 578.911C830.336 578.911 849.105 575.344 847.328 597.539" stroke="#FF6D7E" stroke-opacity="0.8" stroke-width="4.5745" stroke-miterlimit="1.5" stroke-linecap="round" stroke-linejoin="round"/>
<path d="M699.386 609.432C696.094 609.432 693.427 605.733 693.427 601.169C693.427 596.605 696.094 592.905 699.386 592.905C702.677 592.905 705.344 596.605 705.344 601.169C705.344 605.733 702.677 609.432 699.386 609.432Z" fill="#310234" fill-opacity="0.5"/>
<path d="M745.603 615.981C742.312 615.981 739.644 612.281 739.644 607.717C739.644 603.153 742.312 599.454 745.603 599.454C748.894 599.454 751.562 603.153 751.562 607.717C751.562 612.281 748.894 615.981 745.603 615.981Z" fill="#310234" fill-opacity="0.5"/>
<path fill-rule="evenodd" clip-rule="evenodd" d="M703.164 652.429C703.217 660.666 709.92 667.337 718.168 667.337C726.45 667.337 733.174 660.613 733.174 652.331H703.164V652.429Z" fill="white" fill-opacity="0.5"/>
<path fill-rule="evenodd" clip-rule="evenodd" d="M720.18 604.746L704.697 640.312L719.7 642.247L720.18 604.746Z" fill="#FF5F71" fill-opacity="0.5"/>
<path fill-rule="evenodd" clip-rule="evenodd" d="M868.581 745.022C868.581 745.022 916.2 808.713 912.989 876.985C909.779 945.24 896.022 1017.54 896.022 1017.54L774.389 998.349C774.389 998.349 792.218 917.114 792.494 861.164C792.659 824.658 774.333 766.133 774.333 766.133L868.581 745.022Z" fill="url(#paint0_linear_62_2959)" fill-opacity="0.5"/>
<path d="M849.536 756.883C849.536 756.883 876.463 792.608 880.187 846.676C883.892 900.743 873.914 972.283 873.914 972.283" stroke="#C51816" stroke-opacity="0.5" stroke-width="5.08344" stroke-miterlimit="1.5" stroke-linejoin="round"/>
<path d="M798.035 749.564C798.035 749.564 824.963 785.289 828.686 839.357C832.392 893.424 822.413 964.964 822.413 964.964" stroke="#C51816" stroke-opacity="0.5" stroke-width="5.08344" stroke-miterlimit="1.5" stroke-linejoin="round"/>
<path fill-rule="evenodd" clip-rule="evenodd" d="M832.133 681.686C844.423 683.39 853.41 698.643 849.191 709.137C862.967 708.604 874.872 722.507 871.534 733.48C890.519 733.445 897.085 746.3 895.893 758.392C895.893 758.392 869.773 789.288 775.581 787.725C682.453 786.162 672.822 753.935 672.822 753.935C680.71 742.003 689.992 732.095 706.978 732.468C696.834 721.334 709.381 703.294 721.451 701.731C721.451 701.731 744.104 702.833 764.006 699.725C783.908 696.636 832.133 681.686 832.133 681.686Z" fill="#E83230" fill-opacity="0.5"/>
<path fill-rule="evenodd" clip-rule="evenodd" d="M849.101 709.349C826.685 723.075 797.869 730.444 759.091 728.313C793.521 723.377 825.676 714.978 849.596 698.536C850.917 702.14 850.788 705.745 849.101 709.349Z" fill="#C51816" fill-opacity="0.5"/>
<path fill-rule="evenodd" clip-rule="evenodd" d="M707.162 732.681C734.438 752.976 778.589 748.803 819.77 748.91C774.315 757.131 728.88 766.524 685.425 739.534C691.625 734.332 698.981 732.325 707.162 732.681Z" fill="#C51816" fill-opacity="0.5"/>
<path fill-rule="evenodd" clip-rule="evenodd" d="M886.868 1013.46C887.091 1012.22 888.271 1011.39 889.507 1011.6C889.507 1011.6 889.508 1011.6 889.521 1011.6C890.113 1011.7 890.634 1012.04 890.98 1012.53C891.325 1013.02 891.458 1013.64 891.351 1014.24C890.403 1019.5 888.04 1032.62 887.092 1037.89C886.871 1039.11 885.705 1039.94 884.468 1039.73C884.468 1039.73 884.468 1039.73 884.455 1039.73C883.863 1039.63 883.341 1039.29 882.996 1038.8C882.65 1038.31 882.502 1037.71 882.609 1037.11C883.56 1031.83 885.923 1018.71 886.868 1013.46Z" fill="#E83230" fill-opacity="0.5"/>
<path fill-rule="evenodd" clip-rule="evenodd" d="M873.106 1010.3C873.33 1009.06 874.509 1008.23 875.746 1008.44C875.746 1008.44 875.746 1008.44 875.759 1008.44C876.352 1008.54 876.873 1008.88 877.218 1009.37C877.564 1009.86 877.697 1010.48 877.589 1011.07C876.641 1016.34 874.278 1029.46 873.33 1034.72C873.11 1035.95 871.943 1036.78 870.707 1036.57C870.707 1036.57 870.707 1036.57 870.694 1036.57C870.102 1036.47 869.58 1036.13 869.234 1035.64C868.889 1035.14 868.74 1034.54 868.847 1033.95C869.799 1028.66 872.161 1015.55 873.106 1010.3Z" fill="#E83230" fill-opacity="0.5"/>
<path fill-rule="evenodd" clip-rule="evenodd" d="M856.898 1007.36C857.122 1006.12 858.301 1005.29 859.538 1005.5C859.538 1005.5 859.538 1005.5 859.551 1005.5C860.144 1005.6 860.665 1005.94 861.01 1006.43C861.356 1006.92 861.489 1007.54 861.381 1008.13C860.433 1013.4 858.07 1026.52 857.122 1031.78C856.902 1033.01 855.735 1033.84 854.499 1033.63C854.499 1033.63 854.499 1033.63 854.486 1033.63C853.894 1033.53 853.372 1033.19 853.026 1032.7C852.681 1032.2 852.532 1031.6 852.639 1031.01C853.591 1025.72 855.953 1012.61 856.898 1007.36Z" fill="#E83230" fill-opacity="0.5"/>
<path fill-rule="evenodd" clip-rule="evenodd" d="M842.464 1004.83C842.688 1003.59 843.867 1002.76 845.104 1002.97C845.104 1002.97 845.104 1002.97 845.118 1002.97C845.71 1003.07 846.231 1003.41 846.576 1003.9C846.922 1004.39 847.055 1005.01 846.948 1005.61C845.999 1010.87 843.637 1023.99 842.688 1029.26C842.468 1030.48 841.302 1031.31 840.065 1031.1C840.065 1031.1 840.065 1031.1 840.052 1031.1C839.46 1031 838.938 1030.66 838.592 1030.17C838.247 1029.68 838.098 1029.08 838.205 1028.48C839.157 1023.2 841.519 1010.08 842.464 1004.83Z" fill="#E83230" fill-opacity="0.5"/>
<path fill-rule="evenodd" clip-rule="evenodd" d="M829.391 1002.4C829.615 1001.16 830.794 1000.33 832.031 1000.54C832.031 1000.54 832.031 1000.54 832.044 1000.54C832.636 1000.64 833.158 1000.98 833.503 1001.48C833.848 1001.97 833.981 1002.58 833.874 1003.18C832.926 1008.44 830.563 1021.56 829.615 1026.83C829.394 1028.05 828.228 1028.88 826.991 1028.67C826.991 1028.67 826.992 1028.67 826.978 1028.67C826.386 1028.57 825.864 1028.23 825.519 1027.74C825.173 1027.25 825.025 1026.65 825.132 1026.05C826.083 1020.77 828.446 1007.65 829.391 1002.4Z" fill="#E83230" fill-opacity="0.5"/>
<path fill-rule="evenodd" clip-rule="evenodd" d="M816.008 999.368C816.231 998.126 817.411 997.297 818.647 997.505C818.647 997.505 818.648 997.506 818.661 997.508C819.253 997.608 819.774 997.948 820.12 998.439C820.465 998.929 820.598 999.547 820.491 1000.14C819.543 1005.41 817.18 1018.53 816.232 1023.79C816.011 1025.02 814.845 1025.85 813.608 1025.64C813.608 1025.64 813.608 1025.64 813.595 1025.64C813.003 1025.54 812.481 1025.2 812.136 1024.7C811.79 1024.21 811.641 1023.61 811.749 1023.02C812.7 1017.73 815.063 1004.62 816.008 999.368Z" fill="#E83230" fill-opacity="0.5"/>
<path fill-rule="evenodd" clip-rule="evenodd" d="M802.028 997.29C802.251 996.048 803.431 995.219 804.667 995.427C804.667 995.427 804.668 995.428 804.681 995.43C805.273 995.53 805.794 995.87 806.14 996.361C806.485 996.851 806.618 997.469 806.511 998.064C805.563 1003.33 803.2 1016.45 802.252 1021.71C802.031 1022.94 800.865 1023.77 799.628 1023.56C799.628 1023.56 799.628 1023.56 799.615 1023.56C799.023 1023.46 798.501 1023.12 798.156 1022.63C797.81 1022.14 797.661 1021.53 797.769 1020.94C798.72 1015.66 801.083 1002.54 802.028 997.29Z" fill="#E83230" fill-opacity="0.5"/>
<path fill-rule="evenodd" clip-rule="evenodd" d="M788.845 996.076C789.069 994.834 790.248 994.005 791.485 994.214C791.485 994.214 791.485 994.214 791.498 994.216C792.09 994.316 792.612 994.656 792.957 995.147C793.303 995.638 793.435 996.255 793.328 996.85C792.38 1002.12 790.017 1015.23 789.069 1020.5C788.848 1021.72 787.682 1022.55 786.445 1022.35C786.445 1022.35 786.446 1022.35 786.432 1022.34C785.84 1022.24 785.318 1021.9 784.973 1021.41C784.628 1020.92 784.479 1020.32 784.586 1019.72C785.537 1014.44 787.9 1001.32 788.845 996.076Z" fill="#E83230" fill-opacity="0.5"/>
<path fill-rule="evenodd" clip-rule="evenodd" d="M777.598 992.687C777.822 991.446 779.001 990.617 780.238 990.825C780.238 990.825 780.238 990.825 780.251 990.828C780.844 990.928 781.365 991.268 781.71 991.759C782.056 992.249 782.188 992.867 782.081 993.462C781.133 998.727 778.77 1011.85 777.822 1017.11C777.602 1018.34 776.435 1019.17 775.198 1018.96C775.198 1018.96 775.199 1018.96 775.186 1018.96C774.594 1018.86 774.072 1018.52 773.726 1018.02C773.381 1017.53 773.232 1016.93 773.339 1016.34C774.291 1011.05 776.653 997.935 777.598 992.687Z" fill="#E83230" fill-opacity="0.5"/>
</g>
<defs>
<linearGradient id="paint0_linear_62_2959" x1="825.089" y1="835.525" x2="790.711" y2="712.336" gradientUnits="userSpaceOnUse">
<stop stop-color="#E83230"/>
<stop offset="1" stop-color="#AD0200"/>
</linearGradient>
</defs>
</svg>
