<svg width="53" height="26" viewBox="0 0 53 26" fill="none" xmlns="http://www.w3.org/2000/svg">
<path d="M0.686 4.294C0.686 3.22867 1.08267 2.40133 1.876 1.812C2.66933 1.2 3.79133 0.893998 5.242 0.893998V21.906C5.242 22.994 4.84533 23.8327 4.052 24.422C3.25867 25.0113 2.13667 25.306 0.686 25.306V4.294ZM17.0405 5.144H8.84653C8.84653 2.51467 10.0365 1.2 12.4165 1.2H29.7905C29.7905 3.82933 28.5892 5.144 26.1865 5.144H21.5965V21.94C21.5965 23.028 21.2112 23.8667 20.4405 24.456C19.6699 25.0227 18.5365 25.306 17.0405 25.306V5.144Z" fill="#2C55FF"/>
<path d="M42.5031 25.306C40.4857 25.306 38.6837 24.9207 37.0971 24.15C35.5331 23.3793 34.3091 22.3027 33.4251 20.92C32.5411 19.5373 32.0991 17.962 32.0991 16.194V9.938C32.0991 8.17 32.5297 6.606 33.3911 5.246C34.2751 3.86333 35.4877 2.798 37.0291 2.05C38.5704 1.27933 40.3384 0.893998 42.3331 0.893998C44.3277 0.893998 46.0957 1.2 47.6371 1.812C49.2011 2.40133 50.4137 3.24 51.2751 4.328C52.1364 5.39333 52.5671 6.61733 52.5671 8C52.5671 8.83867 52.2837 9.50733 51.7171 10.006C51.1731 10.482 50.4364 10.72 49.5071 10.72C49.0537 10.72 48.5551 10.652 48.0111 10.516C48.0564 9.972 48.0791 9.43933 48.0791 8.918C48.0791 7.71667 47.5464 6.742 46.4811 5.994C45.4157 5.246 44.0331 4.872 42.3331 4.872C40.6557 4.872 39.2844 5.348 38.2191 6.3C37.1764 7.22933 36.6551 8.442 36.6551 9.938V16.194C36.6551 17.7127 37.1991 18.948 38.2871 19.9C39.3751 20.852 40.7804 21.328 42.5031 21.328C44.2031 21.328 45.5857 20.954 46.6511 20.206C47.7164 19.458 48.2491 18.4947 48.2491 17.316C48.2491 16.772 48.2264 16.2507 48.1811 15.752C48.7477 15.6387 49.2237 15.582 49.6091 15.582C50.5611 15.582 51.3204 15.8313 51.8871 16.33C52.4537 16.8287 52.7371 17.5087 52.7371 18.37C52.7371 19.7073 52.3064 20.9087 51.4451 21.974C50.5837 23.0167 49.3711 23.8327 47.8071 24.422C46.2657 25.0113 44.4977 25.306 42.5031 25.306Z" fill="white"/>
</svg>
